<svg xmlns="http://www.w3.org/2000/svg" xmlns:xlink="http://www.w3.org/1999/xlink" width="1920" zoomAndPan="magnify" viewBox="0 0 1440 809.999993" height="1080" preserveAspectRatio="xMidYMid meet" version="1.0"><defs><clipPath id="1f6b9e525c"><path d="M 582 243.558594 L 720 243.558594 L 720 382 L 582 382 Z M 582 243.558594 " clip-rule="nonzero"/></clipPath><clipPath id="30a6ffb2f9"><path d="M 472.765625 381 L 564 381 L 564 472 L 472.765625 472 Z M 472.765625 381 " clip-rule="nonzero"/></clipPath><clipPath id="90fc1855f0"><path d="M 631 455 L 701 455 L 701 524.808594 L 631 524.808594 Z M 631 455 " clip-rule="nonzero"/></clipPath></defs><rect x="-144" width="1728" fill="#ffffff" y="-80.999999" height="971.999992" fill-opacity="1"/><rect x="-144" width="1728" fill="#3396d3" y="-80.999999" height="971.999992" fill-opacity="1"/><g clip-path="url(#1f6b9e525c)"><path fill="#ffffff" d="M 640.667969 243.632812 L 661.53125 243.632812 C 665.335938 243.632812 668.792969 245.183594 671.296875 247.6875 L 671.460938 247.875 C 673.875 250.367188 675.363281 253.746094 675.363281 257.464844 L 675.363281 288.265625 L 706.164062 288.265625 C 709.96875 288.265625 713.425781 289.820312 715.929688 292.324219 C 718.445312 294.835938 719.996094 298.292969 719.996094 302.097656 L 719.996094 322.949219 C 719.996094 326.753906 718.445312 330.222656 715.929688 332.726562 L 715.753906 332.890625 C 713.261719 335.296875 709.882812 336.78125 706.164062 336.78125 L 675.363281 336.78125 L 675.363281 367.597656 C 675.363281 371.390625 673.800781 374.84375 671.296875 377.351562 L 671.285156 377.359375 C 668.78125 379.863281 665.324219 381.417969 661.53125 381.417969 L 640.667969 381.417969 C 636.875 381.417969 633.417969 379.863281 630.902344 377.351562 L 630.902344 377.359375 C 628.398438 374.855469 626.847656 371.402344 626.847656 367.597656 L 626.847656 336.78125 L 596.03125 336.78125 C 592.238281 336.78125 588.78125 335.230469 586.277344 332.726562 L 586.269531 332.726562 C 583.765625 330.222656 582.210938 326.753906 582.210938 322.949219 L 582.210938 302.097656 C 582.210938 298.292969 583.765625 294.835938 586.269531 292.324219 C 588.773438 289.820312 592.226562 288.265625 596.03125 288.265625 L 626.847656 288.265625 L 626.847656 257.464844 C 626.847656 253.65625 628.398438 250.191406 630.902344 247.6875 L 631.089844 247.523438 C 633.582031 245.117188 636.960938 243.632812 640.667969 243.632812 Z M 661.53125 249.601562 L 640.667969 249.601562 C 638.566406 249.601562 636.65625 250.433594 635.242188 251.777344 L 635.125 251.910156 C 633.691406 253.328125 632.804688 255.296875 632.804688 257.464844 L 632.804688 291.25 C 632.804688 292.902344 631.472656 294.234375 629.820312 294.234375 L 596.03125 294.234375 C 593.878906 294.234375 591.910156 295.121094 590.488281 296.542969 C 589.054688 297.976562 588.171875 299.933594 588.171875 302.097656 L 588.171875 322.949219 C 588.171875 325.117188 589.054688 327.082031 590.488281 328.503906 L 590.476562 328.515625 C 591.898438 329.9375 593.867188 330.8125 596.03125 330.8125 L 629.820312 330.8125 C 631.472656 330.8125 632.804688 332.15625 632.804688 333.796875 L 632.804688 367.597656 C 632.804688 369.75 633.691406 371.71875 635.125 373.140625 L 635.125 373.152344 C 636.535156 374.574219 638.503906 375.457031 640.667969 375.457031 L 661.53125 375.457031 C 663.695312 375.457031 665.664062 374.574219 667.085938 373.152344 C 668.507812 371.71875 669.390625 369.75 669.390625 367.597656 L 669.390625 333.796875 C 669.390625 332.15625 670.726562 330.8125 672.378906 330.8125 L 706.164062 330.8125 C 708.265625 330.8125 710.179688 329.980469 711.601562 328.636719 L 711.71875 328.503906 C 713.140625 327.082031 714.027344 325.117188 714.027344 322.949219 L 714.027344 302.097656 C 714.027344 299.933594 713.140625 297.976562 711.71875 296.542969 C 710.289062 295.121094 708.332031 294.234375 706.164062 294.234375 L 672.378906 294.234375 C 670.726562 294.234375 669.390625 292.902344 669.390625 291.25 L 669.390625 257.464844 C 669.390625 255.363281 668.5625 253.449219 667.207031 252.027344 L 667.074219 251.910156 C 665.652344 250.488281 663.683594 249.601562 661.53125 249.601562 Z M 661.53125 249.601562 " fill-opacity="1" fill-rule="nonzero"/></g><g clip-path="url(#30a6ffb2f9)"><path fill="#ffffff" d="M 511.222656 381.21875 L 524.554688 381.21875 C 527.285156 381.21875 529.769531 382.335938 531.5625 384.128906 C 533.355469 385.921875 534.472656 388.40625 534.472656 391.128906 L 534.472656 409.75 L 553.09375 409.75 C 555.828125 409.75 558.308594 410.863281 560.101562 412.667969 C 561.894531 414.460938 563.011719 416.945312 563.011719 419.667969 L 563.011719 433.007812 C 563.011719 435.742188 561.894531 438.210938 560.101562 440.015625 C 558.308594 441.808594 555.824219 442.925781 553.09375 442.925781 L 534.472656 442.925781 L 534.472656 461.546875 C 534.472656 464.269531 533.355469 466.75 531.5625 468.542969 C 529.769531 470.347656 527.285156 471.464844 524.554688 471.464844 L 511.222656 471.464844 C 508.492188 471.464844 506.007812 470.347656 504.214844 468.542969 C 502.421875 466.75 501.304688 464.269531 501.304688 461.546875 L 501.304688 442.925781 L 482.683594 442.925781 C 479.953125 442.925781 477.46875 441.808594 475.675781 440.015625 C 473.882812 438.210938 472.765625 435.742188 472.765625 433.007812 L 472.765625 419.667969 C 472.765625 416.945312 473.882812 414.460938 475.675781 412.667969 C 477.46875 410.863281 479.953125 409.75 482.683594 409.75 L 501.304688 409.75 L 501.304688 391.128906 C 501.304688 388.40625 502.421875 385.921875 504.214844 384.128906 C 506.007812 382.335938 508.492188 381.21875 511.222656 381.21875 Z M 524.554688 387.179688 L 511.222656 387.179688 C 510.140625 387.179688 509.148438 387.628906 508.4375 388.351562 C 507.714844 389.0625 507.277344 390.042969 507.277344 391.128906 L 507.277344 412.734375 C 507.277344 414.386719 505.933594 415.71875 504.292969 415.71875 L 482.683594 415.71875 C 481.601562 415.71875 480.605469 416.167969 479.898438 416.878906 C 479.1875 417.601562 478.738281 418.582031 478.738281 419.667969 L 478.738281 433.007812 C 478.738281 434.089844 479.1875 435.074219 479.898438 435.792969 C 480.617188 436.503906 481.601562 436.953125 482.683594 436.953125 L 504.292969 436.953125 C 505.933594 436.953125 507.277344 438.289062 507.277344 439.9375 L 507.277344 461.546875 C 507.277344 462.628906 507.714844 463.613281 508.4375 464.335938 C 509.148438 465.042969 510.140625 465.492188 511.222656 465.492188 L 524.554688 465.492188 C 525.636719 465.492188 526.632812 465.042969 527.339844 464.335938 C 528.0625 463.613281 528.511719 462.628906 528.511719 461.546875 L 528.511719 439.9375 C 528.511719 438.289062 529.84375 436.953125 531.484375 436.953125 L 553.09375 436.953125 C 554.175781 436.953125 555.171875 436.503906 555.878906 435.792969 C 556.601562 435.074219 557.039062 434.089844 557.039062 433.007812 L 557.039062 419.667969 C 557.039062 418.582031 556.601562 417.601562 555.878906 416.878906 C 555.171875 416.167969 554.175781 415.71875 553.09375 415.71875 L 531.484375 415.71875 C 529.84375 415.71875 528.511719 414.386719 528.511719 412.734375 L 528.511719 391.128906 C 528.511719 390.042969 528.0625 389.0625 527.339844 388.351562 C 526.632812 387.628906 525.636719 387.179688 524.554688 387.179688 Z M 524.554688 387.179688 " fill-opacity="1" fill-rule="nonzero"/></g><g clip-path="url(#90fc1855f0)"><path fill="#ffffff" d="M 661.105469 455.695312 L 671.03125 455.695312 C 673.261719 455.695312 675.296875 456.613281 676.773438 458.089844 L 676.785156 458.078125 C 678.261719 459.554688 679.179688 461.601562 679.179688 463.84375 L 679.179688 476.941406 L 692.269531 476.941406 C 694.507812 476.941406 696.554688 477.847656 698.03125 479.324219 L 698.207031 479.523438 C 699.570312 480.988281 700.414062 482.945312 700.414062 485.089844 L 700.414062 495.003906 C 700.414062 497.246094 699.507812 499.292969 698.03125 500.769531 C 696.554688 502.234375 694.519531 503.152344 692.269531 503.152344 L 679.179688 503.152344 L 679.179688 516.25 C 679.179688 518.492188 678.261719 520.539062 676.785156 522.003906 C 675.308594 523.480469 673.273438 524.398438 671.03125 524.398438 L 661.105469 524.398438 C 658.863281 524.398438 656.816406 523.480469 655.351562 522.003906 L 655.167969 521.804688 C 653.800781 520.351562 652.957031 518.394531 652.957031 516.25 L 652.957031 503.152344 L 639.859375 503.152344 C 637.617188 503.152344 635.582031 502.234375 634.105469 500.769531 L 633.921875 500.558594 C 632.554688 499.09375 631.710938 497.136719 631.710938 495.003906 L 631.710938 485.089844 C 631.710938 482.835938 632.628906 480.800781 634.105469 479.324219 C 635.582031 477.847656 637.617188 476.941406 639.859375 476.941406 L 652.957031 476.941406 L 652.957031 463.84375 C 652.957031 461.601562 653.875 459.566406 655.351562 458.089844 L 655.363281 458.078125 C 656.828125 456.613281 658.863281 455.695312 661.105469 455.695312 Z M 671.03125 461.65625 L 661.105469 461.65625 C 660.503906 461.65625 659.957031 461.90625 659.5625 462.289062 L 659.550781 462.300781 C 659.167969 462.695312 658.929688 463.242188 658.929688 463.84375 L 658.929688 479.914062 C 658.929688 481.566406 657.582031 482.902344 655.941406 482.902344 L 639.859375 482.902344 C 639.257812 482.902344 638.722656 483.152344 638.316406 483.546875 C 637.921875 483.941406 637.683594 484.488281 637.683594 485.089844 L 637.683594 495.003906 C 637.683594 495.5625 637.890625 496.066406 638.21875 496.449219 L 638.328125 496.546875 C 638.722656 496.941406 639.257812 497.191406 639.859375 497.191406 L 655.941406 497.191406 C 657.582031 497.191406 658.929688 498.527344 658.929688 500.167969 L 658.929688 516.25 C 658.929688 516.808594 659.125 517.3125 659.464844 517.695312 L 659.5625 517.792969 C 659.957031 518.1875 660.503906 518.425781 661.105469 518.425781 L 671.03125 518.425781 C 671.625 518.425781 672.167969 518.1875 672.5625 517.792969 C 672.957031 517.386719 673.207031 516.851562 673.207031 516.25 L 673.207031 500.167969 C 673.207031 498.527344 674.542969 497.191406 676.195312 497.191406 L 692.269531 497.191406 C 692.867188 497.191406 693.414062 496.941406 693.808594 496.546875 C 694.203125 496.152344 694.453125 495.605469 694.453125 495.003906 L 694.453125 485.089844 C 694.453125 484.53125 694.246094 484.027344 693.90625 483.644531 L 693.808594 483.546875 C 693.414062 483.152344 692.867188 482.902344 692.269531 482.902344 L 676.195312 482.902344 C 674.542969 482.902344 673.207031 481.566406 673.207031 479.914062 L 673.207031 463.84375 C 673.207031 463.242188 672.957031 462.695312 672.5625 462.300781 L 672.5625 462.289062 C 672.179688 461.90625 671.632812 461.65625 671.03125 461.65625 Z M 671.03125 461.65625 " fill-opacity="1" fill-rule="nonzero"/></g></svg>