<svg xmlns="http://www.w3.org/2000/svg" xmlns:xlink="http://www.w3.org/1999/xlink" width="1920" zoomAndPan="magnify" viewBox="0 0 1440 809.999993" height="1080" preserveAspectRatio="xMidYMid meet" version="1.0"><defs><clipPath id="be79a69e7c"><path d="M 583.445312 189.480469 L 984.695312 189.480469 L 984.695312 521.730469 L 583.445312 521.730469 Z M 583.445312 189.480469 " clip-rule="nonzero"/></clipPath></defs><rect x="-144" width="1728" fill="#ffffff" y="-80.999999" height="971.999992" fill-opacity="1"/><rect x="-144" width="1728" fill="#3396d3" y="-80.999999" height="971.999992" fill-opacity="1"/><g clip-path="url(#be79a69e7c)"><path fill="#ffffff" d="M 666.546875 210.253906 C 666.546875 198.78125 675.847656 189.480469 687.320312 189.480469 L 881.1875 189.480469 C 892.65625 189.480469 901.957031 198.78125 901.957031 210.253906 L 901.957031 224.101562 C 901.957031 235.574219 892.65625 244.871094 881.1875 244.871094 L 881.1875 272.566406 L 964.273438 272.566406 C 975.742188 272.566406 985.042969 281.867188 985.042969 293.339844 L 985.042969 307.1875 C 985.042969 318.660156 975.742188 327.957031 964.273438 327.957031 L 964.273438 507.976562 C 964.273438 515.625 958.074219 521.824219 950.425781 521.824219 L 618.082031 521.824219 C 610.433594 521.824219 604.234375 515.625 604.234375 507.976562 L 604.234375 327.957031 C 592.761719 327.957031 583.460938 318.660156 583.460938 307.1875 L 583.460938 293.339844 C 583.460938 281.867188 592.761719 272.566406 604.234375 272.566406 L 687.320312 272.566406 L 687.320312 244.871094 C 675.847656 244.871094 666.546875 235.574219 666.546875 224.101562 Z M 881.1875 327.957031 L 950.425781 327.957031 L 950.425781 507.976562 L 881.1875 507.976562 Z M 971.195312 307.1875 C 971.195312 311.011719 968.09375 314.109375 964.273438 314.109375 L 881.1875 314.109375 L 881.1875 286.414062 L 964.273438 286.414062 C 968.09375 286.414062 971.195312 289.515625 971.195312 293.339844 Z M 867.339844 244.871094 L 867.339844 507.976562 L 825.796875 507.976562 L 825.796875 438.738281 C 825.796875 431.089844 819.597656 424.890625 811.949219 424.890625 L 756.558594 424.890625 C 748.910156 424.890625 742.710938 431.089844 742.710938 438.738281 L 742.710938 507.976562 L 701.167969 507.976562 L 701.167969 244.871094 Z M 811.949219 438.738281 L 811.949219 507.976562 L 791.175781 507.976562 L 791.175781 438.738281 Z M 777.328125 438.738281 L 777.328125 507.976562 L 756.558594 507.976562 L 756.558594 438.738281 Z M 618.082031 327.957031 L 618.082031 507.976562 L 687.320312 507.976562 L 687.320312 327.957031 Z M 687.320312 314.109375 L 687.320312 286.414062 L 604.234375 286.414062 C 600.410156 286.414062 597.308594 289.515625 597.308594 293.339844 L 597.308594 307.1875 C 597.308594 311.011719 600.410156 314.109375 604.234375 314.109375 Z M 881.1875 231.023438 L 687.320312 231.023438 C 683.496094 231.023438 680.394531 227.925781 680.394531 224.101562 L 680.394531 210.253906 C 680.394531 206.429688 683.496094 203.328125 687.320312 203.328125 L 881.1875 203.328125 C 885.007812 203.328125 888.109375 206.429688 888.109375 210.253906 L 888.109375 224.101562 C 888.109375 227.925781 885.007812 231.023438 881.1875 231.023438 Z M 770.40625 272.566406 C 766.582031 272.566406 763.480469 275.667969 763.480469 279.492188 L 763.480469 307.1875 L 735.785156 307.1875 C 731.960938 307.1875 728.863281 310.289062 728.863281 314.109375 L 728.863281 341.804688 C 728.863281 345.628906 731.960938 348.730469 735.785156 348.730469 L 763.480469 348.730469 L 763.480469 376.425781 C 763.480469 380.25 766.582031 383.347656 770.40625 383.347656 L 798.101562 383.347656 C 801.921875 383.347656 805.023438 380.25 805.023438 376.425781 L 805.023438 348.730469 L 832.71875 348.730469 C 836.542969 348.730469 839.644531 345.628906 839.644531 341.804688 L 839.644531 314.109375 C 839.644531 310.289062 836.542969 307.1875 832.71875 307.1875 L 805.023438 307.1875 L 805.023438 279.492188 C 805.023438 275.667969 801.921875 272.566406 798.101562 272.566406 Z M 777.328125 314.109375 L 777.328125 286.414062 L 791.175781 286.414062 L 791.175781 314.109375 C 791.175781 317.933594 794.277344 321.035156 798.101562 321.035156 L 825.796875 321.035156 L 825.796875 334.882812 L 798.101562 334.882812 C 794.277344 334.882812 791.175781 337.984375 791.175781 341.804688 L 791.175781 369.5 L 777.328125 369.5 L 777.328125 341.804688 C 777.328125 337.984375 774.226562 334.882812 770.40625 334.882812 L 742.710938 334.882812 L 742.710938 321.035156 L 770.40625 321.035156 C 774.226562 321.035156 777.328125 317.933594 777.328125 314.109375 Z M 631.929688 362.578125 C 631.929688 358.753906 635.027344 355.652344 638.851562 355.652344 L 666.546875 355.652344 C 670.371094 355.652344 673.472656 358.753906 673.472656 362.578125 L 673.472656 390.273438 C 673.472656 394.097656 670.371094 397.195312 666.546875 397.195312 L 638.851562 397.195312 C 635.027344 397.195312 631.929688 394.097656 631.929688 390.273438 Z M 645.777344 369.5 L 645.777344 383.347656 L 659.625 383.347656 L 659.625 369.5 Z M 901.957031 355.652344 C 898.132812 355.652344 895.035156 358.753906 895.035156 362.578125 L 895.035156 390.273438 C 895.035156 394.097656 898.132812 397.195312 901.957031 397.195312 L 929.652344 397.195312 C 933.476562 397.195312 936.578125 394.097656 936.578125 390.273438 L 936.578125 362.578125 C 936.578125 358.753906 933.476562 355.652344 929.652344 355.652344 Z M 922.730469 383.347656 L 908.882812 383.347656 L 908.882812 369.5 L 922.730469 369.5 Z M 631.929688 431.816406 C 631.929688 427.992188 635.027344 424.890625 638.851562 424.890625 L 666.546875 424.890625 C 670.371094 424.890625 673.472656 427.992188 673.472656 431.816406 L 673.472656 459.511719 C 673.472656 463.335938 670.371094 466.433594 666.546875 466.433594 L 638.851562 466.433594 C 635.027344 466.433594 631.929688 463.335938 631.929688 459.511719 Z M 645.777344 438.738281 L 645.777344 452.585938 L 659.625 452.585938 L 659.625 438.738281 Z M 901.957031 424.890625 C 898.132812 424.890625 895.035156 427.992188 895.035156 431.816406 L 895.035156 459.511719 C 895.035156 463.335938 898.132812 466.433594 901.957031 466.433594 L 929.652344 466.433594 C 933.476562 466.433594 936.578125 463.335938 936.578125 459.511719 L 936.578125 431.816406 C 936.578125 427.992188 933.476562 424.890625 929.652344 424.890625 Z M 908.882812 452.585938 L 908.882812 438.738281 L 922.730469 438.738281 L 922.730469 452.585938 Z M 908.882812 452.585938 " fill-opacity="1" fill-rule="evenodd"/></g></svg>