<svg xmlns="http://www.w3.org/2000/svg" xmlns:xlink="http://www.w3.org/1999/xlink" width="1920" zoomAndPan="magnify" viewBox="0 0 1440 809.999993" height="1080" preserveAspectRatio="xMidYMid meet" version="1.0"><defs><clipPath id="eaf0cc0d4d"><path d="M 482.03125 322 L 821 322 L 821 488 L 482.03125 488 Z M 482.03125 322 " clip-rule="nonzero"/></clipPath><clipPath id="3c783bff1c"><path d="M 533.117188 226.453125 L 921.53125 226.453125 L 921.53125 583.351562 L 533.117188 583.351562 Z M 533.117188 226.453125 " clip-rule="nonzero"/></clipPath></defs><rect x="-144" width="1728" fill="#ffffff" y="-80.999999" height="971.999992" fill-opacity="1"/><rect x="-144" width="1728" fill="#3396d3" y="-80.999999" height="971.999992" fill-opacity="1"/><g clip-path="url(#eaf0cc0d4d)"><path fill="#c8f0f3" d="M 688.554688 487.917969 C 687.925781 487.917969 687.292969 487.875 686.652344 487.769531 C 680.988281 486.875 676.683594 482.132812 675.941406 475.960938 L 659.699219 340.105469 L 637.765625 424.828125 C 636.351562 430.285156 631.6875 434.105469 626.429688 434.105469 L 488.6875 434.105469 C 485.015625 434.105469 482.03125 431.121094 482.03125 427.441406 L 482.03125 427.308594 C 482.03125 423.628906 485.015625 420.648438 488.6875 420.648438 L 624.945312 420.648438 L 647.867188 332.128906 C 649.511719 325.757812 654.710938 321.757812 660.789062 322.167969 C 666.910156 322.574219 671.742188 327.484375 672.527344 334.09375 L 688.96875 471.582031 L 711.515625 422.628906 C 713.515625 418.292969 717.554688 415.597656 722.050781 415.597656 L 814.234375 415.597656 C 817.910156 415.597656 820.894531 418.578125 820.894531 422.257812 L 820.894531 422.390625 C 820.894531 426.070312 817.910156 429.046875 814.234375 429.046875 L 723.371094 429.046875 L 699.742188 480.355469 C 697.554688 485.09375 693.292969 487.917969 688.554688 487.917969 " fill-opacity="1" fill-rule="nonzero"/></g><g clip-path="url(#3c783bff1c)"><path fill="#c8f0f3" d="M 921.664062 326.863281 C 921.882812 302.144531 908.378906 279.449219 907.15625 277.449219 C 898.285156 262.230469 885.5625 249.46875 870.371094 240.546875 C 854.691406 231.328125 836.742188 226.457031 818.460938 226.457031 C 780.753906 226.457031 746.644531 247.035156 728.773438 279.148438 C 728.308594 279.988281 727.097656 279.988281 726.628906 279.148438 C 708.761719 247.039062 674.652344 226.46875 636.949219 226.46875 C 618.667969 226.46875 600.71875 231.339844 585.035156 240.550781 C 569.84375 249.480469 557.121094 262.246094 548.242188 277.46875 C 547.058594 279.425781 533.53125 302.265625 533.746094 326.851562 C 533.472656 331.0625 532.699219 350.007812 538.628906 369.964844 C 539.175781 371.816406 540.53125 375.382812 541.648438 378.238281 C 542.640625 380.785156 545.101562 382.464844 547.839844 382.464844 L 547.988281 382.464844 C 552.738281 382.464844 555.953125 377.625 554.117188 373.238281 C 553.324219 371.351562 552.640625 369.636719 552.3125 368.648438 C 545.953125 349.21875 547.050781 329.441406 547.167969 327.589844 L 547.207031 327.320312 L 547.199219 326.851562 C 546.96875 305.839844 559.316406 285.15625 559.75 284.445312 L 559.839844 284.289062 C 575.773438 256.925781 605.324219 239.921875 636.949219 239.921875 C 675.097656 239.921875 709.007812 264.15625 721.339844 300.230469 L 721.402344 300.417969 C 723.453125 306.425781 731.953125 306.425781 734.003906 300.417969 L 734.070312 300.230469 C 746.390625 264.148438 780.308594 239.910156 818.460938 239.910156 C 850.085938 239.910156 879.632812 256.914062 895.566406 284.28125 L 895.664062 284.445312 C 896.171875 285.28125 908.4375 305.894531 908.210938 326.84375 L 908.207031 327.320312 L 908.242188 327.589844 C 908.382812 329.789062 909.828125 356.199219 899.332031 378.078125 L 899.117188 378.582031 C 893.566406 393.03125 885.53125 407.398438 875.242188 421.285156 L 870.085938 428.242188 L 870.492188 428.410156 C 829.8125 487.53125 752.824219 550.949219 729.5 569.515625 C 728.847656 570.03125 728.164062 570.136719 727.707031 570.136719 C 727.246094 570.136719 726.5625 570.03125 725.910156 569.515625 C 714.15625 560.15625 688.78125 539.40625 661.296875 513.570312 C 660.058594 512.410156 658.425781 511.757812 656.734375 511.757812 L 656.539062 511.757812 C 650.515625 511.757812 647.597656 519.132812 651.984375 523.261719 C 679.949219 549.566406 705.6875 570.609375 717.582031 580.082031 C 720.445312 582.359375 723.992188 583.597656 727.648438 583.597656 L 727.707031 583.597656 C 731.382812 583.597656 734.996094 582.332031 737.878906 580.039062 C 762.492188 560.453125 845.890625 491.699219 886.25 429.027344 C 897.113281 414.328125 905.636719 399.0625 911.582031 383.652344 C 922.96875 359.710938 921.96875 331.949219 921.664062 326.863281 " fill-opacity="1" fill-rule="nonzero"/></g></svg>