<svg xmlns="http://www.w3.org/2000/svg" xmlns:xlink="http://www.w3.org/1999/xlink" width="1920" zoomAndPan="magnify" viewBox="0 0 1440 809.999993" height="1080" preserveAspectRatio="xMidYMid meet" version="1.0"><defs><clipPath id="8f5e8974e8"><path d="M 683 450 L 907.816406 450 L 907.816406 574.722656 L 683 574.722656 Z M 683 450 " clip-rule="nonzero"/></clipPath><clipPath id="a10770b279"><path d="M 532.066406 235 L 657 235 L 657 362 L 532.066406 362 Z M 532.066406 235 " clip-rule="nonzero"/></clipPath></defs><rect x="-144" width="1728" fill="#ffffff" y="-80.999999" height="971.999992" fill-opacity="1"/><rect x="-144" width="1728" fill="#3396d3" y="-80.999999" height="971.999992" fill-opacity="1"/><path fill="#c8f0f3" d="M 841.664062 394.65625 C 840.449219 402.449219 837.871094 409.761719 833.925781 416.589844 C 825.523438 430.929688 812.574219 438.257812 795.457031 438.328125 C 779.265625 438.417969 765.828125 431.117188 755.59375 416.660156 C 751.1875 410.324219 747.765625 403.496094 745.332031 396.167969 L 747.285156 367.628906 C 753.441406 365.246094 759.179688 362.101562 764.5 358.195312 C 764.421875 358.367188 764.335938 358.539062 764.253906 358.710938 C 763.996094 359.238281 763.8125 359.792969 763.710938 360.375 C 763.605469 360.953125 763.585938 361.535156 763.648438 362.121094 C 763.707031 362.707031 763.847656 363.273438 764.070312 363.816406 C 764.289062 364.363281 764.582031 364.867188 764.945312 365.332031 C 765.308594 365.796875 765.726562 366.199219 766.203125 366.546875 C 766.679688 366.890625 767.195312 367.164062 767.75 367.363281 C 768.304688 367.5625 768.875 367.683594 769.460938 367.722656 C 770.046875 367.761719 770.628906 367.71875 771.207031 367.59375 C 772.480469 367.316406 801.101562 360.855469 826.980469 336.359375 C 829.28125 338.96875 831.207031 341.828125 832.757812 344.941406 C 837.058594 353.257812 842.066406 368.625 841.664062 394.65625 Z M 841.664062 394.65625 " fill-opacity="1" fill-rule="nonzero"/><path fill="#c8f0f3" d="M 852.878906 369.910156 C 851.199219 357.277344 847.945312 346.515625 843.152344 337.761719 C 837.007812 326.550781 830.394531 322.726562 829.660156 322.335938 C 829.054688 322.007812 828.414062 321.78125 827.738281 321.664062 C 827.0625 321.546875 826.382812 321.539062 825.703125 321.644531 C 825.023438 321.75 824.378906 321.960938 823.769531 322.277344 C 823.160156 322.59375 822.617188 323.003906 822.140625 323.5 C 807.675781 338.535156 791.394531 346.964844 780.605469 351.320312 C 783.550781 340.824219 781.171875 335.996094 779.054688 333.878906 C 778.71875 333.542969 778.351562 333.25 777.949219 333 C 777.546875 332.746094 777.121094 332.542969 776.671875 332.390625 C 776.226562 332.234375 775.765625 332.132812 775.292969 332.082031 C 774.824219 332.03125 774.351562 332.035156 773.882812 332.089844 C 773.410156 332.144531 772.953125 332.253906 772.507812 332.414062 C 772.058594 332.574219 771.636719 332.785156 771.238281 333.039062 C 770.839844 333.296875 770.476562 333.59375 770.144531 333.933594 C 769.8125 334.273438 769.523438 334.644531 769.277344 335.050781 C 759.34375 351.328125 739.828125 356.96875 739.648438 357.015625 C 739.023438 357.191406 738.441406 357.453125 737.894531 357.808594 C 737.351562 358.160156 736.875 358.589844 736.464844 359.089844 C 736.054688 359.59375 735.730469 360.144531 735.492188 360.75 C 735.25 361.351562 735.109375 361.976562 735.0625 362.625 L 734.621094 369.183594 C 734.066406 367.125 733.546875 364.960938 733.09375 362.699219 C 728.53125 340.058594 732.078125 318.855469 743.628906 299.679688 C 744.855469 298.164062 753.308594 288.246094 769.21875 281.796875 C 786.464844 274.789062 805.921875 275.945312 822.542969 284.960938 C 823.144531 285.289062 823.78125 285.507812 824.453125 285.625 L 830.132812 286.617188 C 831.285156 286.816406 832.402344 286.703125 833.492188 286.277344 C 833.644531 286.222656 845.222656 281.910156 854.070312 284.914062 C 847.847656 288.328125 844.8125 291.421875 844.023438 295.113281 C 843.855469 295.898438 843.839844 296.683594 843.972656 297.472656 C 844.109375 298.261719 844.382812 298.996094 844.796875 299.683594 C 844.863281 299.796875 851.84375 311.476562 854.964844 328.691406 C 857.597656 343.074219 856.890625 356.871094 852.878906 369.910156 Z M 852.878906 369.910156 " fill-opacity="1" fill-rule="nonzero"/><g clip-path="url(#8f5e8974e8)"><path fill="#c8f0f3" d="M 907.933594 534.855469 L 907.933594 574.9375 L 887.6875 574.9375 L 887.6875 545.605469 C 887.699219 545.1875 887.667969 544.773438 887.597656 544.359375 C 887.523438 543.949219 887.414062 543.546875 887.261719 543.15625 C 887.109375 542.765625 886.917969 542.398438 886.691406 542.046875 C 886.464844 541.695312 886.207031 541.367188 885.914062 541.066406 C 885.621094 540.769531 885.304688 540.5 884.957031 540.265625 C 884.613281 540.027344 884.246094 539.828125 883.859375 539.667969 C 883.476562 539.503906 883.078125 539.382812 882.667969 539.296875 C 882.257812 539.214844 881.84375 539.171875 881.425781 539.171875 C 881.007812 539.171875 880.59375 539.214844 880.183594 539.296875 C 879.773438 539.382812 879.375 539.503906 878.988281 539.667969 C 878.601562 539.828125 878.238281 540.027344 877.890625 540.265625 C 877.546875 540.5 877.226562 540.769531 876.9375 541.066406 C 876.644531 541.367188 876.382812 541.695312 876.15625 542.046875 C 875.929688 542.398438 875.742188 542.765625 875.589844 543.15625 C 875.4375 543.546875 875.324219 543.949219 875.253906 544.359375 C 875.179688 544.773438 875.148438 545.1875 875.160156 545.605469 L 875.160156 574.9375 L 715.769531 574.9375 L 715.769531 545.605469 C 715.769531 545.195312 715.730469 544.785156 715.652344 544.382812 C 715.570312 543.980469 715.453125 543.585938 715.292969 543.207031 C 715.136719 542.828125 714.945312 542.464844 714.714844 542.125 C 714.488281 541.78125 714.226562 541.464844 713.9375 541.175781 C 713.644531 540.882812 713.328125 540.625 712.988281 540.394531 C 712.644531 540.167969 712.285156 539.972656 711.902344 539.816406 C 711.523438 539.660156 711.132812 539.539062 710.726562 539.460938 C 710.324219 539.378906 709.917969 539.339844 709.503906 539.339844 C 709.09375 539.339844 708.6875 539.378906 708.28125 539.460938 C 707.878906 539.539062 707.488281 539.660156 707.109375 539.816406 C 706.726562 539.972656 706.367188 540.167969 706.023438 540.394531 C 705.683594 540.625 705.367188 540.882812 705.074219 541.175781 C 704.785156 541.464844 704.523438 541.78125 704.296875 542.125 C 704.066406 542.464844 703.875 542.828125 703.714844 543.207031 C 703.558594 543.585938 703.441406 543.980469 703.359375 544.382812 C 703.28125 544.785156 703.238281 545.195312 703.238281 545.605469 L 703.238281 574.9375 L 683.003906 574.9375 L 683.003906 534.855469 C 683.003906 532.8125 683.078125 530.78125 683.222656 528.757812 C 688.160156 528.21875 693.046875 527.390625 697.890625 526.273438 C 709.945312 523.46875 721.472656 519.230469 732.472656 513.554688 C 732.664062 514.011719 732.871094 514.460938 733.089844 514.90625 C 733.308594 515.351562 733.539062 515.785156 733.785156 516.21875 C 734.03125 516.648438 734.285156 517.070312 734.558594 517.484375 C 734.828125 517.898438 735.109375 518.304688 735.402344 518.703125 C 735.699219 519.101562 736.003906 519.488281 736.320312 519.871094 C 736.640625 520.25 736.96875 520.621094 737.308594 520.980469 C 737.648438 521.339844 738 521.6875 738.359375 522.027344 C 738.71875 522.367188 739.089844 522.695312 739.46875 523.011719 C 739.851562 523.328125 740.238281 523.632812 740.636719 523.929688 C 741.035156 524.222656 741.445312 524.503906 741.859375 524.773438 C 742.273438 525.042969 742.695312 525.296875 743.128906 525.542969 C 743.558594 525.785156 743.996094 526.015625 744.441406 526.234375 C 744.886719 526.453125 745.335938 526.65625 745.792969 526.847656 C 746.25 527.039062 746.710938 527.21875 747.179688 527.378906 C 747.644531 527.542969 748.117188 527.691406 748.59375 527.828125 C 749.070312 527.964844 749.550781 528.085938 750.03125 528.191406 C 750.515625 528.296875 751.003906 528.390625 751.492188 528.46875 C 751.980469 528.542969 752.46875 528.609375 752.964844 528.65625 C 753.457031 528.703125 753.949219 528.738281 754.445312 528.757812 C 754.9375 528.773438 755.433594 528.777344 755.929688 528.769531 C 756.421875 528.757812 756.917969 528.730469 757.410156 528.691406 C 757.902344 528.648438 758.394531 528.59375 758.886719 528.523438 C 759.375 528.457031 759.863281 528.371094 760.347656 528.273438 C 760.832031 528.171875 761.316406 528.058594 761.792969 527.933594 C 762.273438 527.804688 762.746094 527.664062 763.214844 527.507812 C 763.683594 527.351562 764.148438 527.179688 764.609375 526.996094 C 765.070312 526.8125 765.523438 526.617188 765.96875 526.40625 C 766.417969 526.195312 766.859375 525.96875 767.292969 525.734375 C 767.726562 525.496094 768.15625 525.246094 768.574219 524.984375 C 768.996094 524.71875 769.40625 524.445312 769.808594 524.15625 C 770.210938 523.871094 770.605469 523.570312 770.992188 523.261719 C 771.375 522.949219 771.75 522.625 772.117188 522.292969 C 772.484375 521.960938 772.839844 521.617188 773.183594 521.261719 C 773.53125 520.90625 773.863281 520.542969 774.1875 520.167969 C 774.511719 519.792969 774.824219 519.410156 775.125 519.015625 C 775.425781 518.621094 775.714844 518.222656 775.992188 517.808594 C 776.265625 517.398438 776.53125 516.980469 776.78125 516.554688 C 777.035156 516.128906 777.273438 515.695312 777.5 515.253906 C 777.722656 514.8125 777.9375 514.367188 778.136719 513.914062 C 778.335938 513.460938 778.519531 513.003906 778.691406 512.539062 C 778.863281 512.074219 779.019531 511.605469 779.164062 511.128906 C 779.308594 510.65625 779.4375 510.179688 779.550781 509.699219 C 779.667969 509.214844 779.769531 508.730469 779.855469 508.246094 C 779.941406 507.757812 780.011719 507.269531 780.070312 506.777344 C 780.125 506.285156 780.167969 505.792969 780.195312 505.296875 C 780.222656 504.804688 780.234375 504.308594 780.234375 503.8125 C 780.230469 503.316406 780.214844 502.824219 780.183594 502.328125 C 780.148438 501.835938 780.105469 501.34375 780.042969 500.851562 C 779.980469 500.359375 779.90625 499.871094 779.816406 499.386719 C 779.726562 498.898438 779.621094 498.414062 779.5 497.933594 C 779.382812 497.453125 779.25 496.976562 779.101562 496.503906 C 778.953125 496.03125 778.792969 495.566406 778.617188 495.101562 C 778.441406 494.640625 778.25 494.183594 778.046875 493.730469 C 777.84375 493.28125 777.628906 492.835938 777.398438 492.394531 C 777.167969 491.957031 776.925781 491.527344 776.671875 491.101562 C 776.414062 490.679688 776.148438 490.261719 775.867188 489.855469 C 775.585938 489.445312 775.296875 489.046875 774.992188 488.65625 C 774.6875 488.265625 774.371094 487.882812 774.042969 487.511719 C 773.71875 487.140625 773.378906 486.777344 773.03125 486.425781 C 772.683594 486.074219 772.324219 485.734375 771.957031 485.40625 C 771.585938 485.074219 771.207031 484.757812 770.820312 484.449219 C 770.433594 484.140625 770.035156 483.84375 769.628906 483.5625 C 769.226562 483.277344 768.8125 483.007812 768.390625 482.746094 C 767.96875 482.488281 767.539062 482.242188 767.101562 482.007812 C 766.664062 481.773438 766.222656 481.554688 765.773438 481.347656 C 765.324219 481.140625 764.867188 480.945312 764.40625 480.765625 C 763.945312 480.585938 763.480469 480.421875 763.007812 480.269531 C 762.535156 480.117188 762.0625 479.980469 761.582031 479.855469 C 761.101562 479.734375 760.621094 479.625 760.132812 479.53125 C 759.648438 479.433594 759.160156 479.355469 758.667969 479.289062 C 758.179688 479.222656 757.6875 479.171875 757.191406 479.136719 C 756.699219 479.101562 756.207031 479.078125 755.710938 479.074219 C 755.214844 479.066406 754.71875 479.074219 754.226562 479.097656 C 753.730469 479.121094 753.238281 479.160156 752.746094 479.210938 C 752.253906 479.261719 751.765625 479.332031 751.277344 479.414062 C 750.789062 479.496094 750.300781 479.589844 749.820312 479.703125 C 749.335938 479.8125 748.859375 479.9375 748.382812 480.078125 C 747.910156 480.214844 747.4375 480.371094 746.972656 480.535156 C 746.507812 480.703125 746.046875 480.886719 745.589844 481.082031 C 745.136719 481.277344 744.6875 481.484375 744.246094 481.707031 C 743.800781 481.925781 743.367188 482.164062 742.9375 482.410156 C 742.511719 482.660156 742.089844 482.917969 741.675781 483.191406 C 741.261719 483.464844 740.859375 483.75 740.464844 484.046875 C 740.066406 484.34375 739.679688 484.652344 739.304688 484.972656 C 738.925781 485.292969 738.558594 485.625 738.199219 485.964844 C 737.84375 486.308594 737.496094 486.660156 737.160156 487.023438 C 736.824219 487.386719 736.496094 487.761719 736.183594 488.144531 C 735.867188 488.523438 735.566406 488.917969 735.273438 489.316406 C 734.984375 489.71875 734.707031 490.125 734.4375 490.542969 C 734.171875 490.960938 733.917969 491.386719 733.675781 491.816406 C 733.4375 492.25 733.207031 492.6875 732.992188 493.136719 C 732.777344 493.582031 732.578125 494.03125 732.390625 494.492188 C 732.203125 494.949219 732.027344 495.410156 731.867188 495.878906 C 731.707031 496.347656 731.5625 496.820312 731.429688 497.296875 C 731.296875 497.777344 731.179688 498.257812 731.078125 498.742188 C 730.972656 499.222656 730.882812 499.710938 730.808594 500.199219 C 719.445312 506.558594 707.414062 511.203125 694.722656 514.128906 C 691.480469 514.859375 688.289062 515.449219 685.148438 515.898438 C 685.683594 513.609375 686.308594 511.347656 687.03125 509.113281 C 687.753906 506.878906 688.570312 504.675781 689.476562 502.507812 C 690.382812 500.34375 691.378906 498.21875 692.464844 496.132812 C 693.550781 494.050781 694.722656 492.015625 695.976562 490.03125 C 697.234375 488.046875 698.570312 486.117188 699.988281 484.242188 C 701.40625 482.371094 702.902344 480.558594 704.472656 478.8125 C 706.039062 477.0625 707.679688 475.386719 709.390625 473.773438 C 711.101562 472.164062 712.878906 470.628906 714.714844 469.167969 C 716.554688 467.707031 718.453125 466.324219 720.410156 465.023438 C 722.363281 463.71875 724.371094 462.503906 726.429688 461.367188 C 728.484375 460.234375 730.585938 459.1875 732.734375 458.230469 C 734.878906 457.273438 737.058594 456.40625 739.277344 455.632812 C 741.496094 454.859375 743.742188 454.179688 746.015625 453.59375 C 748.292969 453.007812 750.585938 452.515625 752.902344 452.121094 C 755.21875 451.730469 757.546875 451.433594 759.890625 451.234375 C 762.230469 451.035156 764.574219 450.9375 766.925781 450.9375 L 824.011719 450.9375 C 825.386719 450.9375 826.757812 450.96875 828.128906 451.039062 C 829.5 451.105469 830.871094 451.207031 832.238281 451.339844 C 833.605469 451.476562 834.96875 451.644531 836.324219 451.84375 C 837.683594 452.046875 839.035156 452.28125 840.382812 452.550781 C 841.730469 452.816406 843.070312 453.117188 844.402344 453.453125 C 845.734375 453.785156 847.058594 454.152344 848.371094 454.550781 C 849.6875 454.949219 850.988281 455.378906 852.28125 455.84375 C 853.574219 456.304688 854.855469 456.800781 856.125 457.324219 C 857.394531 457.851562 858.648438 458.40625 859.890625 458.996094 C 861.132812 459.582031 862.359375 460.199219 863.570312 460.847656 C 864.78125 461.496094 865.976562 462.171875 867.152344 462.878906 C 868.332031 463.582031 869.492188 464.320312 870.632812 465.082031 C 871.777344 465.84375 872.898438 466.636719 874 467.453125 C 875.105469 468.269531 876.1875 469.117188 877.25 469.988281 C 878.308594 470.859375 879.347656 471.753906 880.367188 472.675781 C 881.382812 473.601562 882.378906 474.546875 883.351562 475.519531 C 884.320312 476.488281 885.269531 477.484375 886.191406 478.5 C 887.113281 479.519531 888.007812 480.558594 888.878906 481.621094 C 889.75 482.679688 890.597656 483.765625 891.414062 484.867188 C 892.234375 485.96875 893.023438 487.09375 893.785156 488.234375 C 894.550781 489.375 895.285156 490.535156 895.992188 491.714844 C 896.695312 492.890625 897.375 494.085938 898.019531 495.296875 C 898.667969 496.507812 899.285156 497.734375 899.871094 498.976562 C 900.460938 500.21875 901.015625 501.472656 901.542969 502.742188 C 902.066406 504.011719 902.5625 505.292969 903.023438 506.585938 C 903.488281 507.878906 903.917969 509.183594 904.316406 510.496094 C 904.714844 511.808594 905.082031 513.132812 905.414062 514.464844 C 905.75 515.796875 906.050781 517.136719 906.320312 518.484375 C 906.585938 519.832031 906.820312 521.183594 907.023438 522.542969 C 907.222656 523.902344 907.394531 525.261719 907.527344 526.628906 C 907.664062 527.996094 907.761719 529.367188 907.832031 530.738281 C 907.898438 532.109375 907.933594 533.480469 907.933594 534.855469 Z M 907.933594 534.855469 " fill-opacity="1" fill-rule="nonzero"/></g><path fill="#c8f0f3" d="M 767.710938 503.945312 C 767.710938 504.753906 767.632812 505.558594 767.476562 506.351562 C 767.316406 507.144531 767.082031 507.914062 766.773438 508.664062 C 766.464844 509.410156 766.085938 510.121094 765.632812 510.792969 C 765.183594 511.46875 764.675781 512.089844 764.101562 512.664062 C 763.53125 513.234375 762.90625 513.746094 762.234375 514.195312 C 761.5625 514.644531 760.851562 515.027344 760.101562 515.335938 C 759.355469 515.644531 758.585938 515.878906 757.789062 516.039062 C 756.996094 516.195312 756.195312 516.273438 755.386719 516.273438 C 754.578125 516.273438 753.773438 516.195312 752.980469 516.039062 C 752.1875 515.878906 751.417969 515.648438 750.667969 515.335938 C 749.921875 515.027344 749.210938 514.648438 748.539062 514.199219 C 747.863281 513.75 747.242188 513.238281 746.667969 512.667969 C 746.097656 512.09375 745.585938 511.472656 745.136719 510.800781 C 744.683594 510.125 744.304688 509.417969 743.996094 508.667969 C 743.683594 507.921875 743.449219 507.152344 743.292969 506.355469 C 743.132812 505.5625 743.054688 504.761719 743.054688 503.953125 C 743.054688 503.144531 743.132812 502.339844 743.289062 501.546875 C 743.449219 500.753906 743.679688 499.980469 743.992188 499.234375 C 744.300781 498.488281 744.679688 497.777344 745.128906 497.101562 C 745.578125 496.429688 746.089844 495.804688 746.660156 495.234375 C 747.234375 494.660156 747.855469 494.148438 748.527344 493.699219 C 749.199219 493.25 749.910156 492.871094 750.65625 492.558594 C 751.40625 492.25 752.175781 492.015625 752.96875 491.855469 C 753.761719 491.699219 754.566406 491.617188 755.375 491.617188 C 756.183594 491.617188 756.984375 491.695312 757.78125 491.855469 C 758.574219 492.011719 759.34375 492.246094 760.09375 492.558594 C 760.839844 492.867188 761.550781 493.246094 762.226562 493.695312 C 762.898438 494.144531 763.519531 494.65625 764.09375 495.230469 C 764.667969 495.800781 765.179688 496.425781 765.628906 497.097656 C 766.078125 497.769531 766.457031 498.480469 766.769531 499.226562 C 767.078125 499.976562 767.3125 500.746094 767.472656 501.539062 C 767.632812 502.335938 767.710938 503.136719 767.710938 503.945312 Z M 767.710938 503.945312 " fill-opacity="1" fill-rule="nonzero"/><path fill="#c8f0f3" d="M 672.140625 516.9375 C 671.359375 521.070312 670.855469 525.234375 670.628906 529.433594 C 665.792969 529.429688 660.984375 529.085938 656.199219 528.398438 C 639.558594 526 624.265625 519.433594 610.746094 508.886719 C 594.035156 495.84375 584.082031 478.554688 581.171875 457.484375 C 579.066406 442.277344 580.667969 425.449219 585.925781 407.464844 C 587.671875 401.464844 588.753906 395.347656 589.171875 389.117188 C 589.589844 382.882812 589.335938 376.679688 588.40625 370.5 C 588.910156 370.5 589.417969 370.523438 589.925781 370.523438 C 593.621094 370.523438 597.285156 370.199219 600.925781 369.550781 C 601.898438 376.480469 602.136719 383.433594 601.636719 390.414062 C 601.136719 397.394531 599.90625 404.246094 597.953125 410.964844 C 590.125 437.742188 587.339844 474.730469 618.457031 499.007812 C 634.117188 511.226562 652.109375 517.222656 672.140625 516.9375 Z M 672.140625 516.9375 " fill-opacity="1" fill-rule="nonzero"/><g clip-path="url(#a10770b279)"><path fill="#c8f0f3" d="M 656.738281 257.691406 L 656.738281 299.234375 C 656.738281 329.859375 634.542969 355.394531 605.398438 360.605469 C 601.765625 361.25 598.105469 361.574219 594.414062 361.570312 C 593.902344 361.570312 593.398438 361.570312 592.894531 361.550781 C 559.203125 360.746094 532.066406 333.09375 532.066406 299.234375 L 532.066406 258.667969 C 532.070312 257.113281 532.292969 255.585938 532.730469 254.09375 C 533.167969 252.597656 533.804688 251.195312 534.640625 249.878906 C 535.472656 248.566406 536.476562 247.394531 537.640625 246.363281 C 538.808594 245.332031 540.09375 244.480469 541.5 243.816406 L 553.539062 238.152344 C 553.910156 237.976562 554.296875 237.839844 554.695312 237.738281 C 555.09375 237.640625 555.5 237.582031 555.910156 237.5625 C 556.320312 237.542969 556.730469 237.5625 557.136719 237.621094 C 557.542969 237.683594 557.941406 237.785156 558.328125 237.921875 C 558.714844 238.0625 559.082031 238.238281 559.4375 238.449219 C 559.789062 238.664062 560.117188 238.90625 560.421875 239.183594 C 560.726562 239.460938 561 239.761719 561.242188 240.09375 C 561.488281 240.425781 561.699219 240.777344 561.875 241.148438 C 562.050781 241.519531 562.1875 241.90625 562.285156 242.304688 C 562.382812 242.703125 562.445312 243.109375 562.464844 243.519531 C 562.484375 243.929688 562.460938 244.339844 562.402344 244.746094 C 562.339844 245.152344 562.238281 245.550781 562.101562 245.9375 C 561.960938 246.324219 561.785156 246.695312 561.574219 247.046875 C 561.363281 247.398438 561.117188 247.726562 560.839844 248.03125 C 560.5625 248.335938 560.261719 248.609375 559.929688 248.855469 C 559.597656 249.097656 559.246094 249.308594 558.875 249.484375 L 546.839844 255.152344 C 546.15625 255.476562 545.609375 255.957031 545.203125 256.597656 C 544.796875 257.234375 544.59375 257.933594 544.59375 258.691406 L 544.59375 299.257812 C 544.59375 300.886719 544.675781 302.515625 544.839844 304.136719 C 545 305.761719 545.242188 307.371094 545.5625 308.972656 C 545.878906 310.570312 546.277344 312.148438 546.753906 313.710938 C 547.226562 315.269531 547.777344 316.804688 548.402344 318.308594 C 549.027344 319.816406 549.726562 321.289062 550.496094 322.726562 C 551.265625 324.164062 552.105469 325.5625 553.011719 326.917969 C 553.917969 328.273438 554.886719 329.578125 555.921875 330.839844 C 556.957031 332.101562 558.050781 333.308594 559.207031 334.460938 C 560.359375 335.613281 561.566406 336.707031 562.828125 337.742188 C 564.089844 338.777344 565.394531 339.746094 566.753906 340.652344 C 568.109375 341.558594 569.503906 342.394531 570.945312 343.164062 C 572.382812 343.933594 573.855469 344.632812 575.359375 345.253906 C 576.867188 345.878906 578.402344 346.429688 579.960938 346.902344 C 581.523438 347.378906 583.101562 347.773438 584.699219 348.09375 C 586.300781 348.414062 587.910156 348.652344 589.535156 348.8125 C 591.15625 348.976562 592.785156 349.054688 594.414062 349.058594 C 595.519531 349.058594 596.625 349.023438 597.710938 348.941406 C 597.753906 348.949219 597.792969 348.949219 597.835938 348.941406 C 599.394531 348.832031 600.941406 348.652344 602.476562 348.398438 C 604.015625 348.144531 605.539062 347.816406 607.046875 347.417969 C 608.554688 347.023438 610.042969 346.554688 611.503906 346.019531 C 612.96875 345.480469 614.40625 344.878906 615.8125 344.207031 C 617.21875 343.535156 618.59375 342.796875 619.929688 342 C 621.269531 341.199219 622.566406 340.335938 623.824219 339.414062 C 625.082031 338.492188 626.292969 337.515625 627.460938 336.476562 C 628.625 335.441406 629.742188 334.355469 630.804688 333.214844 C 631.867188 332.074219 632.875 330.886719 633.828125 329.652344 C 634.78125 328.417969 635.671875 327.140625 636.503906 325.820312 C 637.335938 324.503906 638.105469 323.148438 638.8125 321.757812 C 639.515625 320.367188 640.15625 318.945312 640.726562 317.496094 C 641.300781 316.046875 641.804688 314.570312 642.238281 313.074219 C 642.671875 311.574219 643.035156 310.0625 643.324219 308.53125 C 643.617188 306.996094 643.835938 305.457031 643.984375 303.902344 C 644.132812 302.351562 644.207031 300.796875 644.207031 299.234375 L 644.207031 257.691406 C 644.207031 257.03125 644.050781 256.414062 643.738281 255.832031 C 643.421875 255.253906 642.988281 254.785156 642.4375 254.421875 L 631.171875 246.996094 C 630.816406 246.773438 630.492188 246.515625 630.191406 246.230469 C 629.886719 245.941406 629.617188 245.628906 629.378906 245.285156 C 629.140625 244.945312 628.9375 244.582031 628.769531 244.203125 C 628.605469 243.820312 628.476562 243.425781 628.390625 243.019531 C 628.300781 242.609375 628.253906 242.199219 628.25 241.78125 C 628.242188 241.367188 628.277344 240.953125 628.355469 240.542969 C 628.429688 240.132812 628.546875 239.734375 628.703125 239.347656 C 628.859375 238.960938 629.050781 238.59375 629.28125 238.246094 C 629.511719 237.898438 629.773438 237.578125 630.066406 237.28125 C 630.359375 236.988281 630.679688 236.722656 631.023438 236.492188 C 631.371094 236.257812 631.738281 236.0625 632.121094 235.902344 C 632.507812 235.746094 632.902344 235.625 633.3125 235.546875 C 633.722656 235.464844 634.132812 235.425781 634.550781 235.429688 C 634.96875 235.433594 635.378906 235.476562 635.789062 235.558594 C 636.195312 235.644531 636.589844 235.769531 636.972656 235.933594 C 637.359375 236.097656 637.722656 236.296875 638.0625 236.53125 L 649.335938 243.964844 C 650.472656 244.710938 651.503906 245.585938 652.421875 246.589844 C 653.34375 247.59375 654.125 248.695312 654.773438 249.890625 C 655.417969 251.089844 655.90625 252.351562 656.242188 253.667969 C 656.574219 254.988281 656.738281 256.328125 656.738281 257.691406 Z M 656.738281 257.691406 " fill-opacity="1" fill-rule="nonzero"/></g></svg>