<svg xmlns="http://www.w3.org/2000/svg" xmlns:xlink="http://www.w3.org/1999/xlink" width="1920" zoomAndPan="magnify" viewBox="0 0 1440 809.999993" height="1080" preserveAspectRatio="xMidYMid meet" version="1.0"><defs><filter x="0%" y="0%" width="100%" height="100%" id="7c3b3120b3"><feColorMatrix values="0 0 0 0 1 0 0 0 0 1 0 0 0 0 1 0 0 0 1 0" color-interpolation-filters="sRGB"/></filter><mask id="73b9e4b4df"><g filter="url(#7c3b3120b3)"><rect x="-144" width="1728" fill="#000000" y="-80.999999" height="971.999992" fill-opacity="0.3"/></g></mask><clipPath id="d3e8f6914a"><path d="M 0 10.921875 L 317.289062 10.921875 L 317.289062 224.671875 L 0 224.671875 Z M 0 10.921875 " clip-rule="nonzero"/></clipPath><clipPath id="6e860933f0"><rect x="0" width="681" y="0" height="421"/></clipPath><mask id="d0bb598f81"><g filter="url(#7c3b3120b3)"><rect x="-144" width="1728" fill="#000000" y="-80.999999" height="971.999992" fill-opacity="0.3"/></g></mask><clipPath id="ad5dede252"><path d="M 0 209 L 356 209 L 356 434 L 0 434 Z M 0 209 " clip-rule="nonzero"/></clipPath><clipPath id="e78c6e51a0"><path d="M 347.105469 437.558594 L -32.113281 422.945312 L -23.882812 209.355469 L 355.335938 223.964844 Z M 347.105469 437.558594 " clip-rule="nonzero"/></clipPath><clipPath id="c3c0b07d5b"><path d="M 784.496094 741.859375 L -409.367188 695.859375 L -382.339844 -5.617188 L 811.523438 40.378906 Z M 784.496094 741.859375 " clip-rule="nonzero"/></clipPath><clipPath id="2e6bafb71d"><rect x="0" width="810" y="0" height="434"/></clipPath><mask id="50f3d90cef"><g filter="url(#7c3b3120b3)"><rect x="-144" width="1728" fill="#000000" y="-80.999999" height="971.999992" fill-opacity="0.3"/></g></mask><clipPath id="66e7bf76c6"><path d="M 447.246094 0 L 826.746094 0 L 826.746094 163.179688 L 447.246094 163.179688 Z M 447.246094 0 " clip-rule="nonzero"/></clipPath><clipPath id="f97eafe477"><rect x="0" width="942" y="0" height="359"/></clipPath><mask id="05affbb712"><g filter="url(#7c3b3120b3)"><rect x="-144" width="1728" fill="#000000" y="-80.999999" height="971.999992" fill-opacity="0.3"/></g></mask><clipPath id="1fab3f8a20"><path d="M 633 354 L 1240 354 L 1240 712 L 633 712 Z M 633 354 " clip-rule="nonzero"/></clipPath><clipPath id="5b31719349"><path d="M 1275.433594 741.742188 L 633.160156 716.996094 L 647.136719 354.265625 L 1289.410156 379.011719 Z M 1275.433594 741.742188 " clip-rule="nonzero"/></clipPath><clipPath id="1bf6138a9e"><path d="M 2016.546875 1257.351562 L -6.199219 1179.417969 L 39.59375 -9.199219 L 2062.34375 68.730469 Z M 2016.546875 1257.351562 " clip-rule="nonzero"/></clipPath><clipPath id="dbabd97d84"><rect x="0" width="1240" y="0" height="712"/></clipPath><clipPath id="63606588d8"><path d="M 104 425 L 170 425 L 170 500.527344 L 104 500.527344 Z M 104 425 " clip-rule="nonzero"/></clipPath><clipPath id="f6127965cd"><path d="M 34 425 L 100 425 L 100 500.527344 L 34 500.527344 Z M 34 425 " clip-rule="nonzero"/></clipPath><clipPath id="4fd32980d8"><path d="M 135 394 L 182.261719 394 L 182.261719 500.527344 L 135 500.527344 Z M 135 394 " clip-rule="nonzero"/></clipPath><clipPath id="fae20a5fcc"><path d="M 21.011719 394 L 68 394 L 68 500.527344 L 21.011719 500.527344 Z M 21.011719 394 " clip-rule="nonzero"/></clipPath><clipPath id="04281b1a5e"><path d="M 57 355.027344 L 146 355.027344 L 146 444 L 57 444 Z M 57 355.027344 " clip-rule="nonzero"/></clipPath><clipPath id="07e10a0819"><path d="M 1077 725 L 1204.398438 725 L 1204.398438 794.980469 L 1077 794.980469 Z M 1077 725 " clip-rule="nonzero"/></clipPath><clipPath id="4e44f241cd"><path d="M 992.898438 603.730469 L 1063 603.730469 L 1063 675 L 992.898438 675 Z M 992.898438 603.730469 " clip-rule="nonzero"/></clipPath><clipPath id="02d9ed1cec"><path d="M 945.246094 294 L 1118 294 L 1118 380 L 945.246094 380 Z M 945.246094 294 " clip-rule="nonzero"/></clipPath><clipPath id="aa1b84bf16"><path d="M 971.238281 246.128906 L 1168.746094 246.128906 L 1168.746094 427.574219 L 971.238281 427.574219 Z M 971.238281 246.128906 " clip-rule="nonzero"/></clipPath></defs><rect x="-144" width="1728" fill="#ffffff" y="-80.999999" height="971.999992" fill-opacity="1"/><rect x="-144" width="1728" fill="#3396d3" y="-80.999999" height="971.999992" fill-opacity="1"/><g mask="url(#73b9e4b4df)"><g transform="matrix(1, 0, 0, 1, 0, 0.000000000000039746)"><g clip-path="url(#6e860933f0)"><g clip-path="url(#d3e8f6914a)"><path fill="#f7feff" d="M -488.441406 414.75 C -434.4375 298.628906 -322.496094 214.398438 -197.285156 190.050781 C -166.128906 184.058594 -134.328125 182.023438 -102.660156 183.945312 C -63.519531 186.3125 -24.953125 193.789062 13.8125 199.335938 C 86.171875 209.710938 163.925781 212.761719 225.910156 167.515625 C 279.09375 128.683594 311.535156 65.394531 308.242188 -0.773438 C 305.054688 -65.210938 268.390625 -139.425781 204.105469 -162.070312 C 172.769531 -173.105469 137.652344 -164.835938 117.507812 -137.546875 C 99.441406 -113.15625 103.574219 -80.382812 126.882812 -61.011719 C 149.75 -42.058594 180.578125 -37.195312 209.28125 -35.136719 C 242.007812 -32.816406 274.9375 -33.898438 307.464844 -38.101562 C 436.878906 -54.6875 560.164062 -118.992188 645.523438 -218.066406 C 656.09375 -230.339844 666.046875 -243.1875 675.445312 -256.433594 C 682.609375 -266.515625 665.980469 -276.136719 658.859375 -266.117188 C 587.34375 -165.410156 477.300781 -94.644531 357.464844 -66.515625 C 327.546875 -59.441406 297.074219 -55.128906 266.355469 -53.667969 C 237.277344 -52.363281 206.382812 -52.011719 177.855469 -58.535156 C 155.167969 -63.730469 124.78125 -76.46875 125.003906 -104.222656 C 125.246094 -135.292969 161.359375 -152.164062 188.207031 -146.546875 C 219.851562 -140.003906 245.0625 -114.636719 261.601562 -88.144531 C 278.386719 -61.253906 288.007812 -29.941406 289.15625 1.703125 C 291.390625 63.292969 259.878906 122.578125 208.441406 156.324219 C 147.515625 196.285156 72.925781 189.097656 4.414062 178.683594 C -32.09375 173.066406 -68.605469 166.566406 -105.535156 164.574219 C -135.609375 162.9375 -165.796875 165.039062 -195.449219 170.300781 C -313.007812 190.957031 -421.300781 263.757812 -483.863281 365.546875 C -491.691406 378.285156 -498.722656 391.488281 -505.027344 405.066406 C -510.199219 416.167969 -493.660156 425.960938 -488.441406 414.75 " fill-opacity="1" fill-rule="nonzero"/></g></g></g></g><g mask="url(#d0bb598f81)"><g transform="matrix(1, 0, 0, 1, 0, 376)"><g clip-path="url(#2e6bafb71d)"><g clip-path="url(#ad5dede252)"><g clip-path="url(#e78c6e51a0)"><g clip-path="url(#c3c0b07d5b)"><path fill="#f7feff" d="M 788.566406 50.4375 C 730.132812 164.394531 615.03125 244.253906 488.976562 263.765625 C 457.609375 268.550781 425.753906 269.363281 394.1875 266.21875 C 355.164062 262.347656 316.914062 253.394531 278.390625 246.355469 C 206.484375 233.207031 128.90625 227.164062 65.226562 269.988281 C 10.585938 306.746094 -24.265625 368.738281 -23.523438 434.980469 C -22.820312 499.496094 10.960938 575.066406 74.324219 600.171875 C 105.214844 612.40625 140.621094 605.492188 161.804688 579 C 180.796875 555.320312 177.925781 522.414062 155.382812 502.15625 C 133.261719 482.339844 102.644531 476.292969 74.042969 473.132812 C 41.425781 469.550781 8.480469 469.367188 -24.1875 472.3125 C -154.140625 483.902344 -279.808594 543.417969 -368.921875 639.128906 C -379.957031 650.984375 -390.394531 663.441406 -400.296875 676.316406 C -407.84375 686.117188 -391.597656 696.367188 -384.097656 686.632812 C -308.753906 588.753906 -196.074219 522.277344 -75.242188 498.78125 C -45.070312 492.863281 -14.457031 489.726562 16.292969 489.453125 C 45.402344 489.269531 76.285156 490.105469 104.542969 497.71875 C 127.015625 503.785156 156.886719 517.683594 155.597656 545.410156 C 154.15625 576.445312 117.421875 591.917969 90.8125 585.269531 C 59.441406 577.511719 35.226562 551.195312 19.71875 524.085938 C 3.980469 496.566406 -4.425781 464.90625 -4.355469 433.242188 C -4.21875 371.613281 29.554688 313.582031 82.253906 281.84375 C 144.671875 244.257812 218.929688 254.3125 286.988281 267.355469 C 323.253906 274.375 359.488281 282.277344 396.3125 285.6875 C 426.300781 288.480469 456.546875 287.542969 486.382812 283.425781 C 604.648438 267.3125 715.664062 198.738281 782.097656 99.429688 C 790.410156 87.003906 797.945312 74.082031 804.765625 60.757812 C 810.363281 49.863281 794.210938 39.4375 788.566406 50.4375 " fill-opacity="1" fill-rule="nonzero"/></g></g></g></g></g></g><g mask="url(#50f3d90cef)"><g transform="matrix(1, 0, 0, 1, 498, 0.000000000000039746)"><g clip-path="url(#f97eafe477)"><g clip-path="url(#66e7bf76c6)"><path fill="#f7feff" d="M 21.015625 353.257812 C 75.019531 237.136719 186.960938 152.90625 312.171875 128.558594 C 343.328125 122.5625 375.128906 120.53125 406.796875 122.453125 C 445.9375 124.820312 484.503906 132.292969 523.273438 137.84375 C 595.628906 148.214844 673.382812 151.269531 735.367188 106.023438 C 788.550781 67.191406 820.992188 3.902344 817.699219 -62.265625 C 814.511719 -126.703125 777.847656 -200.917969 713.5625 -223.566406 C 682.226562 -234.597656 647.109375 -226.328125 626.964844 -199.039062 C 608.898438 -174.648438 613.03125 -141.875 636.339844 -122.503906 C 659.207031 -103.550781 690.035156 -98.6875 718.738281 -96.628906 C 751.464844 -94.308594 784.394531 -95.390625 816.925781 -99.59375 C 946.335938 -116.179688 1069.621094 -180.488281 1154.980469 -279.558594 C 1165.550781 -291.832031 1175.503906 -304.679688 1184.902344 -317.925781 C 1192.066406 -328.007812 1175.4375 -337.628906 1168.316406 -327.609375 C 1096.800781 -226.902344 986.761719 -156.140625 866.925781 -128.011719 C 837.003906 -120.933594 806.53125 -116.621094 775.8125 -115.160156 C 746.734375 -113.855469 715.839844 -113.503906 687.3125 -120.027344 C 664.625 -125.222656 634.238281 -137.960938 634.460938 -165.714844 C 634.703125 -196.785156 670.816406 -213.65625 697.664062 -208.039062 C 729.308594 -201.496094 754.519531 -176.128906 771.058594 -149.636719 C 787.84375 -122.746094 797.464844 -91.433594 798.613281 -59.789062 C 800.847656 1.800781 769.335938 61.085938 717.898438 94.832031 C 656.972656 134.792969 582.382812 127.605469 513.875 117.191406 C 477.363281 111.574219 440.851562 105.070312 403.921875 103.082031 C 373.847656 101.445312 343.660156 103.546875 314.007812 108.808594 C 196.449219 129.464844 88.15625 202.261719 25.59375 304.054688 C 17.765625 316.792969 10.734375 329.996094 4.433594 343.570312 C -0.742188 354.671875 15.796875 364.46875 21.015625 353.257812 " fill-opacity="1" fill-rule="nonzero"/></g></g></g></g><g mask="url(#05affbb712)"><g transform="matrix(1, 0, 0, 1, 200, 98)"><g clip-path="url(#dbabd97d84)"><g clip-path="url(#1fab3f8a20)"><g clip-path="url(#5b31719349)"><g clip-path="url(#1bf6138a9e)"><path fill="#f7feff" d="M 2023.445312 85.804688 C 1924.4375 278.890625 1729.410156 414.207031 1515.820312 447.261719 C 1462.675781 455.378906 1408.699219 456.746094 1355.207031 451.425781 C 1289.089844 444.863281 1224.277344 429.695312 1159.003906 417.765625 C 1037.167969 395.484375 905.71875 385.246094 797.816406 457.808594 C 705.234375 520.089844 646.179688 625.132812 647.441406 737.375 C 648.628906 846.691406 705.867188 974.738281 813.234375 1017.273438 C 865.570312 1038.003906 925.570312 1026.289062 961.460938 981.398438 C 993.640625 941.28125 988.777344 885.519531 950.578125 851.199219 C 913.097656 817.621094 861.21875 807.371094 812.753906 802.015625 C 757.492188 795.949219 701.667969 795.636719 646.316406 800.628906 C 426.121094 820.269531 213.183594 921.109375 62.195312 1083.28125 C 43.496094 1103.375 25.808594 1124.480469 9.03125 1146.292969 C -3.757812 1162.898438 23.773438 1180.273438 36.480469 1163.773438 C 164.140625 997.929688 355.070312 885.289062 559.804688 845.480469 C 610.925781 835.453125 662.804688 830.136719 714.90625 829.671875 C 764.226562 829.359375 816.558594 830.773438 864.433594 843.679688 C 902.511719 853.960938 953.125 877.507812 950.941406 924.484375 C 948.5 977.074219 886.257812 1003.289062 841.167969 992.027344 C 788.015625 978.878906 746.984375 934.289062 720.707031 888.355469 C 694.042969 841.730469 679.796875 788.082031 679.914062 734.425781 C 680.152344 630.003906 737.375 531.675781 826.667969 477.894531 C 932.425781 414.210938 1058.25 431.246094 1173.570312 453.351562 C 1235.019531 465.242188 1296.414062 478.632812 1358.8125 484.410156 C 1409.625 489.144531 1460.871094 487.554688 1511.425781 480.578125 C 1711.816406 453.277344 1899.921875 337.082031 2012.488281 168.816406 C 2026.570312 147.757812 2039.339844 125.863281 2050.898438 103.285156 C 2060.382812 84.828125 2033.015625 67.160156 2023.445312 85.804688 " fill-opacity="1" fill-rule="nonzero"/></g></g></g></g></g></g><g clip-path="url(#63606588d8)"><path fill="#c8f0f3" d="M 109.511719 500.679688 C 108.078125 500.679688 106.910156 499.511719 106.910156 498.078125 C 106.910156 493.089844 106.332031 490.863281 105.710938 488.515625 C 105.019531 485.886719 104.308594 483.171875 104.308594 477.269531 C 104.308594 460.027344 130.339844 445.824219 133.964844 443.933594 C 137.726562 440.195312 153.257812 425.25 161.53125 425.25 C 164.609375 425.25 166.40625 426.5 167.371094 427.558594 C 169.535156 429.894531 169.351562 433.023438 169.320312 433.367188 C 169.28125 433.917969 169.066406 434.4375 168.710938 434.851562 C 157.394531 448.222656 151.054688 455.367188 149.875 456.078125 C 147.449219 457.558594 134.503906 466.328125 134.382812 466.417969 C 133.195312 467.222656 131.566406 466.917969 130.765625 465.71875 C 129.960938 464.53125 130.265625 462.914062 131.457031 462.113281 C 131.996094 461.746094 144.644531 453.179688 147.171875 451.636719 C 148.230469 450.742188 156.582031 441.109375 164.078125 432.273438 C 164.007812 431.867188 163.847656 431.398438 163.539062 431.0625 C 163.144531 430.65625 162.472656 430.453125 161.53125 430.453125 C 156.867188 430.453125 144.582031 440.652344 137.359375 447.898438 C 137.164062 448.089844 136.941406 448.253906 136.699219 448.386719 C 136.425781 448.515625 109.511719 462.324219 109.511719 477.269531 C 109.511719 482.503906 110.109375 484.777344 110.738281 487.1875 C 111.410156 489.757812 112.113281 492.417969 112.113281 498.078125 C 112.113281 499.511719 110.941406 500.679688 109.511719 500.679688 " fill-opacity="1" fill-rule="nonzero"/></g><g clip-path="url(#f6127965cd)"><path fill="#c8f0f3" d="M 93.90625 500.679688 C 92.472656 500.679688 91.304688 499.511719 91.304688 498.078125 C 91.304688 492.417969 92.003906 489.757812 92.675781 487.1875 C 93.304688 484.777344 93.90625 482.503906 93.90625 477.269531 C 93.90625 462.324219 66.992188 448.515625 66.71875 448.386719 C 66.472656 448.253906 66.25 448.089844 66.058594 447.898438 C 58.832031 440.652344 46.550781 430.453125 41.886719 430.453125 C 40.929688 430.453125 40.242188 430.667969 39.863281 431.082031 C 39.550781 431.417969 39.40625 431.886719 39.335938 432.273438 C 46.835938 441.109375 55.1875 450.742188 56.414062 451.757812 C 58.773438 453.179688 71.421875 461.746094 71.949219 462.113281 C 73.148438 462.914062 73.453125 464.53125 72.652344 465.71875 C 71.847656 466.917969 70.234375 467.230469 69.042969 466.417969 C 68.910156 466.328125 55.957031 457.558594 53.539062 456.078125 C 52.359375 455.367188 46.019531 448.222656 34.703125 434.851562 C 34.347656 434.4375 34.132812 433.917969 34.09375 433.378906 C 34.0625 433.023438 33.878906 429.894531 36.035156 427.558594 C 37.007812 426.5 38.808594 425.25 41.886719 425.25 C 50.144531 425.25 65.691406 440.195312 69.449219 443.933594 C 73.078125 445.824219 99.105469 460.027344 99.105469 477.269531 C 99.105469 483.171875 98.394531 485.886719 97.703125 488.515625 C 97.085938 490.863281 96.507812 493.089844 96.507812 498.078125 C 96.507812 499.511719 95.335938 500.679688 93.90625 500.679688 " fill-opacity="1" fill-rule="nonzero"/></g><g clip-path="url(#4fd32980d8)"><path fill="#c8f0f3" d="M 138.121094 500.679688 C 136.6875 500.679688 135.519531 499.511719 135.519531 498.078125 C 135.519531 483.050781 146.300781 476.507812 153.441406 472.179688 C 155.992188 470.636719 158.410156 469.171875 159.519531 467.820312 C 162.160156 464.582031 173.265625 441.984375 174.644531 437.492188 C 175.601562 434.414062 177.136719 409.59375 177.136719 399.953125 C 177.136719 399.667969 177.105469 399.496094 177.003906 399.3125 C 176.882812 399.28125 176.699219 399.242188 176.484375 399.242188 C 169.851562 399.242188 169.34375 415.253906 169.34375 420.160156 C 169.34375 421.59375 168.175781 422.761719 166.742188 422.761719 C 165.296875 422.761719 164.140625 421.59375 164.140625 420.160156 C 164.140625 398.570312 170.855469 394.039062 176.484375 394.039062 C 177.226562 394.039062 179.765625 394.191406 181.128906 396.113281 C 181.949219 397.28125 182.335938 398.5 182.335938 399.953125 C 182.335938 407.96875 180.984375 434.597656 179.625 439.019531 C 178.160156 443.742188 166.894531 467.007812 163.539062 471.113281 C 161.875 473.15625 159.210938 474.769531 156.132812 476.640625 C 149.265625 480.796875 140.722656 485.976562 140.722656 498.078125 C 140.722656 499.511719 139.554688 500.679688 138.121094 500.679688 " fill-opacity="1" fill-rule="nonzero"/></g><g clip-path="url(#fae20a5fcc)"><path fill="#c8f0f3" d="M 65.292969 500.679688 C 63.863281 500.679688 62.695312 499.511719 62.695312 498.078125 C 62.695312 485.976562 54.148438 480.796875 47.28125 476.640625 C 44.203125 474.769531 41.539062 473.15625 39.875 471.113281 C 36.523438 467.019531 25.253906 443.753906 23.792969 439.019531 C 22.429688 434.597656 21.078125 407.96875 21.078125 399.953125 C 21.078125 398.5 21.464844 397.28125 22.289062 396.113281 C 23.648438 394.191406 26.179688 394.039062 26.929688 394.039062 C 32.558594 394.039062 39.273438 398.570312 39.273438 420.160156 C 39.273438 421.59375 38.117188 422.761719 36.675781 422.761719 C 35.242188 422.761719 34.074219 421.59375 34.074219 420.160156 C 34.074219 415.253906 33.554688 399.242188 26.929688 399.242188 C 26.71875 399.242188 26.535156 399.28125 26.414062 399.3125 C 26.3125 399.496094 26.28125 399.667969 26.28125 399.953125 C 26.28125 409.59375 27.816406 434.414062 28.769531 437.492188 C 30.152344 441.984375 41.257812 464.589844 43.898438 467.820312 C 45.003906 469.171875 47.421875 470.636719 49.972656 472.179688 C 57.117188 476.507812 67.894531 483.050781 67.894531 498.078125 C 67.894531 499.511719 66.726562 500.679688 65.292969 500.679688 " fill-opacity="1" fill-rule="nonzero"/></g><path fill="#c8f0f3" d="M 96.507812 420.050781 L 106.910156 420.050781 L 106.910156 407.042969 C 106.910156 405.613281 108.078125 404.445312 109.511719 404.445312 L 122.515625 404.445312 L 122.515625 394.039062 L 109.511719 394.039062 C 108.078125 394.039062 106.910156 392.871094 106.910156 391.4375 L 106.910156 378.433594 L 96.507812 378.433594 L 96.507812 391.4375 C 96.507812 392.871094 95.335938 394.039062 93.90625 394.039062 L 80.898438 394.039062 L 80.898438 404.445312 L 93.90625 404.445312 C 95.335938 404.445312 96.507812 405.613281 96.507812 407.042969 Z M 109.511719 425.25 L 93.90625 425.25 C 92.472656 425.25 91.304688 424.082031 91.304688 422.652344 L 91.304688 409.644531 L 78.300781 409.644531 C 76.867188 409.644531 75.699219 408.476562 75.699219 407.042969 L 75.699219 391.4375 C 75.699219 390.007812 76.867188 388.839844 78.300781 388.839844 L 91.304688 388.839844 L 91.304688 375.832031 C 91.304688 374.402344 92.472656 373.234375 93.90625 373.234375 L 109.511719 373.234375 C 110.941406 373.234375 112.113281 374.402344 112.113281 375.832031 L 112.113281 388.839844 L 125.117188 388.839844 C 126.546875 388.839844 127.71875 390.007812 127.71875 391.4375 L 127.71875 407.042969 C 127.71875 408.476562 126.546875 409.644531 125.117188 409.644531 L 112.113281 409.644531 L 112.113281 422.652344 C 112.113281 424.082031 110.941406 425.25 109.511719 425.25 " fill-opacity="1" fill-rule="nonzero"/><g clip-path="url(#04281b1a5e)"><path fill="#c8f0f3" d="M 101.707031 360.226562 C 80.1875 360.226562 62.695312 377.734375 62.695312 399.242188 C 62.695312 420.75 80.1875 438.257812 101.707031 438.257812 C 123.226562 438.257812 140.722656 420.75 140.722656 399.242188 C 140.722656 377.734375 123.226562 360.226562 101.707031 360.226562 Z M 101.707031 443.457031 C 77.324219 443.457031 57.492188 423.625 57.492188 399.242188 C 57.492188 374.859375 77.324219 355.027344 101.707031 355.027344 C 126.089844 355.027344 145.921875 374.859375 145.921875 399.242188 C 145.921875 423.625 126.089844 443.457031 101.707031 443.457031 " fill-opacity="1" fill-rule="nonzero"/></g><path fill="#c8f0f3" d="M 1166.898438 693.472656 C 1166.214844 697.851562 1164.765625 701.960938 1162.546875 705.800781 C 1157.828125 713.859375 1150.546875 717.976562 1140.925781 718.015625 C 1131.828125 718.066406 1124.277344 713.964844 1118.527344 705.839844 C 1116.046875 702.277344 1114.125 698.441406 1112.757812 694.324219 L 1113.855469 678.285156 C 1117.316406 676.941406 1120.539062 675.175781 1123.53125 672.980469 C 1123.488281 673.078125 1123.4375 673.171875 1123.390625 673.269531 C 1123.09375 673.875 1122.980469 674.515625 1123.050781 675.1875 C 1123.121094 675.859375 1123.363281 676.460938 1123.78125 676.992188 C 1124.195312 677.523438 1124.722656 677.902344 1125.355469 678.132812 C 1125.992188 678.363281 1126.640625 678.40625 1127.296875 678.261719 C 1128.015625 678.105469 1144.101562 674.476562 1158.644531 660.707031 C 1159.9375 662.175781 1161.019531 663.78125 1161.894531 665.53125 C 1164.308594 670.207031 1167.125 678.84375 1166.898438 693.472656 Z M 1166.898438 693.472656 " fill-opacity="1" fill-rule="nonzero"/><path fill="#c8f0f3" d="M 1173.199219 679.566406 C 1172.257812 672.464844 1170.425781 666.417969 1167.734375 661.496094 C 1164.28125 655.195312 1160.5625 653.046875 1160.152344 652.828125 C 1159.8125 652.640625 1159.453125 652.515625 1159.070312 652.449219 C 1158.691406 652.382812 1158.308594 652.378906 1157.925781 652.4375 C 1157.546875 652.496094 1157.183594 652.617188 1156.839844 652.792969 C 1156.496094 652.972656 1156.191406 653.203125 1155.925781 653.480469 C 1147.796875 661.929688 1138.644531 666.671875 1132.582031 669.117188 C 1134.238281 663.21875 1132.898438 660.503906 1131.710938 659.3125 C 1131.519531 659.125 1131.3125 658.960938 1131.089844 658.820312 C 1130.863281 658.679688 1130.625 658.5625 1130.371094 658.476562 C 1130.121094 658.390625 1129.863281 658.332031 1129.597656 658.304688 C 1129.332031 658.277344 1129.066406 658.277344 1128.800781 658.308594 C 1128.539062 658.339844 1128.28125 658.402344 1128.03125 658.492188 C 1127.777344 658.582031 1127.542969 658.699219 1127.316406 658.84375 C 1127.09375 658.988281 1126.886719 659.15625 1126.703125 659.34375 C 1126.515625 659.535156 1126.355469 659.746094 1126.214844 659.972656 C 1120.632812 669.121094 1109.664062 672.292969 1109.5625 672.320312 C 1109.210938 672.414062 1108.882812 672.5625 1108.578125 672.761719 C 1108.273438 672.960938 1108.003906 673.203125 1107.773438 673.484375 C 1107.542969 673.765625 1107.359375 674.078125 1107.226562 674.417969 C 1107.09375 674.753906 1107.011719 675.105469 1106.988281 675.46875 L 1106.738281 679.15625 C 1106.425781 678 1106.132812 676.78125 1105.878906 675.511719 C 1103.316406 662.789062 1105.308594 650.871094 1111.800781 640.09375 C 1112.488281 639.242188 1117.242188 633.667969 1126.183594 630.042969 C 1135.875 626.105469 1146.808594 626.753906 1156.152344 631.824219 C 1156.488281 632.007812 1156.847656 632.128906 1157.226562 632.195312 L 1160.417969 632.75 C 1161.0625 632.863281 1161.691406 632.800781 1162.304688 632.5625 C 1162.390625 632.53125 1168.898438 630.109375 1173.867188 631.796875 C 1170.371094 633.714844 1168.667969 635.453125 1168.222656 637.527344 C 1168.03125 638.441406 1168.175781 639.296875 1168.65625 640.09375 C 1168.695312 640.160156 1172.617188 646.722656 1174.375 656.398438 C 1175.851562 664.484375 1175.453125 672.238281 1173.199219 679.566406 Z M 1173.199219 679.566406 " fill-opacity="1" fill-rule="nonzero"/><g clip-path="url(#07e10a0819)"><path fill="#c8f0f3" d="M 1204.140625 772.265625 L 1204.140625 794.792969 L 1192.765625 794.792969 L 1192.765625 778.308594 C 1192.777344 777.832031 1192.695312 777.375 1192.523438 776.933594 C 1192.351562 776.488281 1192.097656 776.097656 1191.765625 775.757812 C 1191.433594 775.417969 1191.050781 775.15625 1190.613281 774.96875 C 1190.175781 774.785156 1189.71875 774.691406 1189.242188 774.691406 C 1188.769531 774.691406 1188.3125 774.785156 1187.875 774.96875 C 1187.4375 775.15625 1187.050781 775.417969 1186.71875 775.757812 C 1186.390625 776.097656 1186.136719 776.488281 1185.964844 776.933594 C 1185.789062 777.375 1185.710938 777.832031 1185.722656 778.308594 L 1185.722656 794.792969 L 1096.144531 794.792969 L 1096.144531 778.308594 C 1096.144531 777.839844 1096.054688 777.390625 1095.875 776.960938 C 1095.699219 776.527344 1095.441406 776.148438 1095.113281 775.816406 C 1094.78125 775.488281 1094.402344 775.234375 1093.96875 775.054688 C 1093.539062 774.875 1093.089844 774.785156 1092.621094 774.785156 C 1092.15625 774.785156 1091.707031 774.875 1091.273438 775.054688 C 1090.84375 775.234375 1090.460938 775.488281 1090.132812 775.816406 C 1089.800781 776.148438 1089.546875 776.527344 1089.371094 776.960938 C 1089.191406 777.390625 1089.101562 777.839844 1089.101562 778.308594 L 1089.101562 794.792969 L 1077.730469 794.792969 L 1077.730469 772.265625 C 1077.730469 771.117188 1077.769531 769.976562 1077.851562 768.839844 C 1080.625 768.535156 1083.375 768.070312 1086.09375 767.441406 C 1092.871094 765.867188 1099.347656 763.484375 1105.53125 760.296875 C 1105.746094 760.808594 1105.992188 761.308594 1106.269531 761.789062 C 1106.542969 762.273438 1106.847656 762.742188 1107.179688 763.1875 C 1107.507812 763.636719 1107.867188 764.0625 1108.25 764.46875 C 1108.628906 764.871094 1109.035156 765.253906 1109.464844 765.609375 C 1109.890625 765.964844 1110.339844 766.296875 1110.804688 766.597656 C 1111.273438 766.902344 1111.757812 767.175781 1112.257812 767.421875 C 1112.757812 767.667969 1113.269531 767.882812 1113.796875 768.066406 C 1114.320312 768.25 1114.855469 768.402344 1115.398438 768.519531 C 1115.941406 768.640625 1116.492188 768.726562 1117.046875 768.78125 C 1117.601562 768.835938 1118.15625 768.855469 1118.714844 768.84375 C 1119.269531 768.832031 1119.824219 768.785156 1120.375 768.707031 C 1120.925781 768.628906 1121.472656 768.519531 1122.007812 768.375 C 1122.546875 768.230469 1123.074219 768.054688 1123.59375 767.847656 C 1124.109375 767.644531 1124.613281 767.40625 1125.101562 767.140625 C 1125.589844 766.871094 1126.058594 766.578125 1126.515625 766.253906 C 1126.96875 765.929688 1127.398438 765.582031 1127.8125 765.207031 C 1128.222656 764.832031 1128.609375 764.433594 1128.976562 764.011719 C 1129.339844 763.589844 1129.675781 763.148438 1129.988281 762.6875 C 1130.300781 762.222656 1130.582031 761.746094 1130.835938 761.25 C 1131.089844 760.753906 1131.3125 760.246094 1131.507812 759.722656 C 1131.699219 759.199219 1131.859375 758.667969 1131.988281 758.128906 C 1132.121094 757.585938 1132.214844 757.039062 1132.28125 756.484375 C 1132.34375 755.933594 1132.375 755.375 1132.371094 754.820312 C 1132.371094 754.261719 1132.335938 753.707031 1132.265625 753.15625 C 1132.195312 752.601562 1132.09375 752.054688 1131.960938 751.515625 C 1131.828125 750.976562 1131.660156 750.445312 1131.464844 749.925781 C 1131.265625 749.402344 1131.039062 748.898438 1130.78125 748.402344 C 1130.519531 747.910156 1130.234375 747.433594 1129.917969 746.972656 C 1129.605469 746.515625 1129.261719 746.078125 1128.894531 745.660156 C 1128.527344 745.242188 1128.136719 744.84375 1127.71875 744.472656 C 1127.304688 744.101562 1126.871094 743.757812 1126.414062 743.4375 C 1125.957031 743.117188 1125.484375 742.828125 1124.992188 742.566406 C 1124.5 742.300781 1123.996094 742.070312 1123.476562 741.867188 C 1122.957031 741.664062 1122.429688 741.496094 1121.890625 741.355469 C 1121.351562 741.21875 1120.804688 741.109375 1120.253906 741.039062 C 1119.703125 740.964844 1119.148438 740.921875 1118.589844 740.914062 C 1118.035156 740.90625 1117.476562 740.933594 1116.925781 740.992188 C 1116.371094 741.050781 1115.824219 741.144531 1115.28125 741.269531 C 1114.738281 741.394531 1114.203125 741.550781 1113.679688 741.738281 C 1113.15625 741.925781 1112.644531 742.144531 1112.148438 742.394531 C 1111.648438 742.644531 1111.167969 742.921875 1110.703125 743.230469 C 1110.238281 743.539062 1109.792969 743.871094 1109.371094 744.230469 C 1108.945312 744.589844 1108.542969 744.976562 1108.164062 745.382812 C 1107.785156 745.792969 1107.433594 746.222656 1107.105469 746.671875 C 1106.777344 747.125 1106.480469 747.59375 1106.207031 748.078125 C 1105.9375 748.566406 1105.695312 749.066406 1105.484375 749.582031 C 1105.273438 750.097656 1105.09375 750.621094 1104.945312 751.160156 C 1104.796875 751.695312 1104.679688 752.238281 1104.597656 752.789062 C 1098.207031 756.363281 1091.449219 758.972656 1084.316406 760.617188 C 1082.492188 761.027344 1080.699219 761.359375 1078.933594 761.613281 C 1079.234375 760.324219 1079.585938 759.054688 1079.992188 757.796875 C 1080.398438 756.542969 1080.855469 755.304688 1081.367188 754.085938 C 1081.875 752.871094 1082.4375 751.675781 1083.046875 750.503906 C 1083.65625 749.332031 1084.3125 748.191406 1085.019531 747.074219 C 1085.726562 745.957031 1086.476562 744.875 1087.273438 743.820312 C 1088.070312 742.769531 1088.910156 741.75 1089.792969 740.769531 C 1090.675781 739.785156 1091.597656 738.84375 1092.558594 737.9375 C 1093.519531 737.03125 1094.519531 736.167969 1095.550781 735.347656 C 1096.585938 734.527344 1097.652344 733.75 1098.75 733.019531 C 1099.851562 732.285156 1100.976562 731.601562 1102.132812 730.964844 C 1103.289062 730.328125 1104.472656 729.742188 1105.675781 729.203125 C 1106.882812 728.664062 1108.109375 728.175781 1109.355469 727.742188 C 1110.601562 727.308594 1111.863281 726.925781 1113.144531 726.59375 C 1114.421875 726.265625 1115.710938 725.992188 1117.011719 725.769531 C 1118.316406 725.546875 1119.625 725.382812 1120.9375 725.269531 C 1122.253906 725.160156 1123.574219 725.101562 1124.894531 725.101562 L 1156.976562 725.101562 C 1158.523438 725.101562 1160.0625 725.179688 1161.601562 725.328125 C 1163.136719 725.480469 1164.664062 725.707031 1166.179688 726.007812 C 1167.691406 726.3125 1169.1875 726.683594 1170.667969 727.132812 C 1172.144531 727.582031 1173.597656 728.101562 1175.023438 728.695312 C 1176.453125 729.285156 1177.847656 729.945312 1179.210938 730.671875 C 1180.570312 731.402344 1181.894531 732.195312 1183.179688 733.050781 C 1184.464844 733.910156 1185.703125 734.828125 1186.894531 735.808594 C 1188.089844 736.789062 1189.234375 737.824219 1190.324219 738.917969 C 1191.417969 740.007812 1192.453125 741.152344 1193.433594 742.347656 C 1194.414062 743.539062 1195.332031 744.78125 1196.191406 746.0625 C 1197.050781 747.347656 1197.84375 748.671875 1198.570312 750.035156 C 1199.296875 751.394531 1199.957031 752.789062 1200.550781 754.21875 C 1201.140625 755.644531 1201.660156 757.097656 1202.109375 758.574219 C 1202.558594 760.054688 1202.933594 761.550781 1203.234375 763.066406 C 1203.535156 764.582031 1203.761719 766.105469 1203.914062 767.644531 C 1204.066406 769.179688 1204.140625 770.722656 1204.140625 772.265625 Z M 1204.140625 772.265625 " fill-opacity="1" fill-rule="nonzero"/></g><path fill="#c8f0f3" d="M 1125.335938 754.894531 C 1125.335938 755.347656 1125.289062 755.800781 1125.203125 756.246094 C 1125.113281 756.691406 1124.980469 757.125 1124.808594 757.546875 C 1124.632812 757.964844 1124.421875 758.367188 1124.167969 758.742188 C 1123.914062 759.121094 1123.628906 759.472656 1123.304688 759.792969 C 1122.984375 760.113281 1122.636719 760.402344 1122.257812 760.65625 C 1121.878906 760.90625 1121.480469 761.121094 1121.058594 761.296875 C 1120.640625 761.46875 1120.207031 761.601562 1119.757812 761.691406 C 1119.3125 761.777344 1118.863281 761.824219 1118.410156 761.824219 C 1117.953125 761.824219 1117.503906 761.777344 1117.058594 761.691406 C 1116.609375 761.601562 1116.175781 761.46875 1115.757812 761.296875 C 1115.335938 761.121094 1114.9375 760.910156 1114.558594 760.65625 C 1114.179688 760.40625 1113.832031 760.117188 1113.507812 759.796875 C 1113.1875 759.472656 1112.898438 759.125 1112.648438 758.746094 C 1112.394531 758.367188 1112.179688 757.96875 1112.007812 757.546875 C 1111.832031 757.128906 1111.699219 756.695312 1111.613281 756.25 C 1111.523438 755.804688 1111.476562 755.351562 1111.476562 754.898438 C 1111.476562 754.441406 1111.523438 753.992188 1111.609375 753.546875 C 1111.699219 753.101562 1111.828125 752.667969 1112.003906 752.246094 C 1112.175781 751.828125 1112.390625 751.425781 1112.644531 751.046875 C 1112.894531 750.671875 1113.183594 750.320312 1113.503906 750 C 1113.824219 749.675781 1114.175781 749.390625 1114.554688 749.136719 C 1114.933594 748.882812 1115.332031 748.667969 1115.75 748.496094 C 1116.171875 748.320312 1116.605469 748.1875 1117.050781 748.101562 C 1117.496094 748.011719 1117.945312 747.964844 1118.402344 747.964844 C 1118.855469 747.964844 1119.308594 748.011719 1119.753906 748.097656 C 1120.199219 748.1875 1120.632812 748.320312 1121.054688 748.492188 C 1121.472656 748.667969 1121.875 748.882812 1122.25 749.132812 C 1122.628906 749.386719 1122.980469 749.675781 1123.300781 749.996094 C 1123.625 750.316406 1123.910156 750.667969 1124.164062 751.046875 C 1124.417969 751.421875 1124.632812 751.824219 1124.804688 752.242188 C 1124.980469 752.664062 1125.113281 753.097656 1125.199219 753.542969 C 1125.289062 753.988281 1125.335938 754.441406 1125.335938 754.894531 Z M 1125.335938 754.894531 " fill-opacity="1" fill-rule="nonzero"/><path fill="#c8f0f3" d="M 1071.621094 762.195312 C 1071.183594 764.519531 1070.902344 766.859375 1070.773438 769.21875 C 1068.054688 769.21875 1065.351562 769.023438 1062.664062 768.636719 C 1053.3125 767.289062 1044.71875 763.597656 1037.117188 757.671875 C 1027.726562 750.339844 1022.132812 740.625 1020.496094 728.78125 C 1019.3125 720.234375 1020.214844 710.777344 1023.167969 700.671875 C 1025.15625 693.847656 1025.621094 686.921875 1024.5625 679.894531 C 1024.847656 679.894531 1025.132812 679.910156 1025.417969 679.910156 C 1027.496094 679.910156 1029.554688 679.726562 1031.597656 679.363281 C 1032.707031 687.238281 1032.152344 695 1029.929688 702.636719 C 1025.53125 717.6875 1023.964844 738.476562 1041.453125 752.117188 C 1050.253906 758.984375 1060.363281 762.355469 1071.621094 762.195312 Z M 1071.621094 762.195312 " fill-opacity="1" fill-rule="nonzero"/><g clip-path="url(#4e44f241cd)"><path fill="#c8f0f3" d="M 1062.964844 616.496094 L 1062.964844 639.84375 C 1062.964844 657.054688 1050.492188 671.40625 1034.113281 674.335938 C 1032.070312 674.699219 1030.015625 674.878906 1027.941406 674.878906 C 1027.652344 674.878906 1027.367188 674.878906 1027.085938 674.867188 C 1008.152344 674.414062 992.898438 658.875 992.898438 639.84375 L 992.898438 617.046875 C 992.902344 616.171875 993.027344 615.3125 993.273438 614.472656 C 993.519531 613.632812 993.875 612.84375 994.347656 612.105469 C 994.816406 611.367188 995.378906 610.707031 996.03125 610.128906 C 996.6875 609.550781 997.410156 609.074219 998.203125 608.699219 L 1004.96875 605.515625 C 1005.390625 605.316406 1005.832031 605.203125 1006.300781 605.183594 C 1006.765625 605.160156 1007.21875 605.226562 1007.660156 605.386719 C 1008.097656 605.542969 1008.488281 605.78125 1008.835938 606.09375 C 1009.179688 606.410156 1009.453125 606.777344 1009.652344 607.199219 C 1009.851562 607.621094 1009.960938 608.066406 1009.984375 608.53125 C 1010.003906 609 1009.9375 609.449219 1009.78125 609.890625 C 1009.621094 610.328125 1009.386719 610.722656 1009.070312 611.066406 C 1008.757812 611.414062 1008.390625 611.683594 1007.964844 611.882812 L 1001.203125 615.070312 C 1000.816406 615.25 1000.511719 615.523438 1000.285156 615.882812 C 1000.054688 616.242188 999.941406 616.632812 999.941406 617.058594 L 999.941406 639.855469 C 999.941406 640.773438 999.988281 641.6875 1000.078125 642.601562 C 1000.167969 643.511719 1000.304688 644.417969 1000.484375 645.316406 C 1000.664062 646.214844 1000.886719 647.101562 1001.152344 647.980469 C 1001.421875 648.855469 1001.730469 649.71875 1002.082031 650.566406 C 1002.433594 651.410156 1002.824219 652.238281 1003.257812 653.046875 C 1003.691406 653.855469 1004.160156 654.640625 1004.671875 655.402344 C 1005.179688 656.164062 1005.726562 656.898438 1006.308594 657.605469 C 1006.890625 658.316406 1007.503906 658.992188 1008.152344 659.640625 C 1008.800781 660.289062 1009.480469 660.902344 1010.1875 661.484375 C 1010.894531 662.066406 1011.632812 662.613281 1012.394531 663.121094 C 1013.15625 663.628906 1013.941406 664.101562 1014.75 664.535156 C 1015.558594 664.964844 1016.386719 665.359375 1017.230469 665.707031 C 1018.078125 666.058594 1018.941406 666.367188 1019.816406 666.636719 C 1020.695312 666.902344 1021.582031 667.125 1022.480469 667.304688 C 1023.378906 667.484375 1024.285156 667.617188 1025.199219 667.707031 C 1026.109375 667.800781 1027.023438 667.84375 1027.941406 667.84375 C 1028.5625 667.84375 1029.183594 667.824219 1029.792969 667.78125 C 1029.816406 667.785156 1029.839844 667.785156 1029.863281 667.78125 C 1030.738281 667.71875 1031.609375 667.617188 1032.472656 667.472656 C 1033.335938 667.332031 1034.191406 667.148438 1035.039062 666.925781 C 1035.886719 666.703125 1036.722656 666.4375 1037.546875 666.136719 C 1038.367188 665.835938 1039.175781 665.496094 1039.964844 665.117188 C 1040.757812 664.742188 1041.527344 664.328125 1042.28125 663.878906 C 1043.03125 663.429688 1043.761719 662.945312 1044.46875 662.425781 C 1045.175781 661.90625 1045.855469 661.359375 1046.511719 660.777344 C 1047.167969 660.195312 1047.792969 659.582031 1048.390625 658.941406 C 1048.988281 658.300781 1049.554688 657.632812 1050.089844 656.9375 C 1050.625 656.246094 1051.128906 655.527344 1051.59375 654.785156 C 1052.0625 654.046875 1052.496094 653.285156 1052.890625 652.503906 C 1053.289062 651.722656 1053.648438 650.921875 1053.96875 650.105469 C 1054.289062 649.292969 1054.574219 648.464844 1054.816406 647.621094 C 1055.0625 646.78125 1055.265625 645.929688 1055.429688 645.066406 C 1055.59375 644.207031 1055.714844 643.339844 1055.796875 642.46875 C 1055.882812 641.59375 1055.921875 640.722656 1055.921875 639.84375 L 1055.921875 616.496094 C 1055.925781 616.125 1055.835938 615.777344 1055.660156 615.453125 C 1055.484375 615.125 1055.238281 614.863281 1054.929688 614.660156 L 1048.597656 610.484375 C 1048.195312 610.230469 1047.863281 609.910156 1047.589844 609.523438 C 1047.320312 609.136719 1047.132812 608.710938 1047.035156 608.25 C 1046.933594 607.789062 1046.929688 607.324219 1047.015625 606.859375 C 1047.101562 606.394531 1047.277344 605.964844 1047.535156 605.570312 C 1047.796875 605.171875 1048.121094 604.84375 1048.515625 604.582031 C 1048.910156 604.316406 1049.335938 604.140625 1049.800781 604.050781 C 1050.265625 603.960938 1050.730469 603.960938 1051.191406 604.058594 C 1051.65625 604.15625 1052.082031 604.335938 1052.472656 604.605469 L 1058.804688 608.78125 C 1059.445312 609.203125 1060.023438 609.695312 1060.542969 610.257812 C 1061.058594 610.820312 1061.5 611.441406 1061.863281 612.113281 C 1062.226562 612.785156 1062.5 613.492188 1062.6875 614.234375 C 1062.875 614.976562 1062.96875 615.730469 1062.964844 616.496094 Z M 1062.964844 616.496094 " fill-opacity="1" fill-rule="nonzero"/></g><g clip-path="url(#02d9ed1cec)"><path fill="#c8f0f3" d="M 1050.316406 379.148438 C 1049.996094 379.148438 1049.671875 379.125 1049.347656 379.074219 C 1046.464844 378.617188 1044.277344 376.207031 1043.898438 373.066406 L 1035.636719 303.949219 L 1024.476562 347.050781 C 1023.757812 349.828125 1021.382812 351.769531 1018.710938 351.769531 L 948.632812 351.769531 C 946.761719 351.769531 945.246094 350.253906 945.246094 348.382812 L 945.246094 348.3125 C 945.246094 346.441406 946.761719 344.925781 948.632812 344.925781 L 1017.953125 344.925781 L 1029.613281 299.890625 C 1030.453125 296.648438 1033.097656 294.613281 1036.191406 294.820312 C 1039.304688 295.03125 1041.761719 297.527344 1042.164062 300.890625 L 1050.527344 370.835938 L 1061.996094 345.933594 C 1063.015625 343.726562 1065.070312 342.355469 1067.355469 342.355469 L 1114.253906 342.355469 C 1116.125 342.355469 1117.644531 343.871094 1117.644531 345.746094 L 1117.644531 345.8125 C 1117.644531 347.683594 1116.125 349.199219 1114.253906 349.199219 L 1068.027344 349.199219 L 1056.007812 375.300781 C 1054.894531 377.710938 1052.726562 379.148438 1050.316406 379.148438 " fill-opacity="1" fill-rule="nonzero"/></g><g clip-path="url(#aa1b84bf16)"><path fill="#c8f0f3" d="M 1168.910156 297.210938 C 1169.023438 284.636719 1162.152344 273.089844 1161.53125 272.074219 C 1157.015625 264.332031 1150.542969 257.835938 1142.816406 253.296875 C 1134.839844 248.609375 1125.707031 246.128906 1116.40625 246.128906 C 1097.222656 246.128906 1079.867188 256.597656 1070.777344 272.9375 C 1070.539062 273.363281 1069.921875 273.363281 1069.6875 272.9375 C 1060.597656 256.601562 1043.242188 246.136719 1024.0625 246.136719 C 1014.761719 246.136719 1005.628906 248.613281 997.648438 253.300781 C 989.921875 257.84375 983.449219 264.339844 978.933594 272.082031 C 978.328125 273.078125 971.449219 284.699219 971.558594 297.207031 C 971.417969 299.347656 971.023438 308.988281 974.039062 319.140625 C 974.320312 320.082031 975.007812 321.894531 975.578125 323.347656 C 976.082031 324.644531 977.332031 325.5 978.726562 325.5 L 978.800781 325.5 C 981.21875 325.5 982.855469 323.035156 981.921875 320.804688 C 981.515625 319.84375 981.167969 318.972656 981 318.46875 C 977.765625 308.585938 978.324219 298.523438 978.386719 297.582031 L 978.402344 297.445312 L 978.402344 297.207031 C 978.285156 286.515625 984.566406 275.992188 984.785156 275.632812 L 984.832031 275.554688 C 992.9375 261.628906 1007.972656 252.980469 1024.0625 252.980469 C 1043.46875 252.980469 1060.722656 265.308594 1066.996094 283.660156 L 1067.027344 283.757812 C 1068.070312 286.816406 1072.394531 286.816406 1073.4375 283.757812 L 1073.472656 283.660156 C 1079.742188 265.304688 1096.996094 252.976562 1116.40625 252.976562 C 1132.496094 252.976562 1147.527344 261.625 1155.632812 275.546875 L 1155.683594 275.632812 C 1155.941406 276.058594 1162.179688 286.542969 1162.066406 297.203125 L 1162.0625 297.445312 L 1162.082031 297.582031 C 1162.15625 298.699219 1162.890625 312.136719 1157.550781 323.269531 L 1157.441406 323.523438 C 1154.617188 330.875 1150.527344 338.183594 1145.292969 345.25 L 1142.667969 348.789062 L 1142.878906 348.875 C 1122.183594 378.953125 1083.011719 411.21875 1071.148438 420.660156 C 1070.8125 420.925781 1070.46875 420.980469 1070.234375 420.980469 C 1070 420.980469 1069.652344 420.925781 1069.320312 420.660156 C 1063.339844 415.898438 1050.429688 405.34375 1036.449219 392.199219 C 1035.820312 391.609375 1034.988281 391.277344 1034.125 391.277344 L 1034.027344 391.277344 C 1030.964844 391.277344 1029.480469 395.03125 1031.710938 397.128906 C 1045.9375 410.515625 1059.03125 421.21875 1065.085938 426.039062 C 1066.539062 427.195312 1068.34375 427.824219 1070.203125 427.824219 L 1070.234375 427.824219 C 1072.105469 427.824219 1073.941406 427.183594 1075.410156 426.015625 C 1087.929688 416.050781 1130.359375 381.074219 1150.894531 349.1875 C 1156.417969 341.710938 1160.757812 333.945312 1163.78125 326.101562 C 1169.574219 313.921875 1169.066406 299.800781 1168.910156 297.210938 " fill-opacity="1" fill-rule="nonzero"/></g></svg>