<svg xmlns="http://www.w3.org/2000/svg" xmlns:xlink="http://www.w3.org/1999/xlink" width="1920" zoomAndPan="magnify" viewBox="0 0 1440 809.999993" height="1080" preserveAspectRatio="xMidYMid meet" version="1.0"><defs><clipPath id="b3dd356a9a"><path d="M 601.503906 228.25 L 838.503906 228.25 L 838.503906 493 L 601.503906 493 Z M 601.503906 228.25 " clip-rule="nonzero"/></clipPath></defs><rect x="-144" width="1728" fill="#ffffff" y="-80.999999" height="971.999992" fill-opacity="1"/><rect x="-144" width="1728" fill="#3396d3" y="-80.999999" height="971.999992" fill-opacity="1"/><g clip-path="url(#b3dd356a9a)"><path fill="#ffffff" d="M 828.59375 285.808594 L 828.59375 236.734375 C 828.59375 232.054688 824.785156 228.25 820.105469 228.25 L 619.945312 228.25 C 615.269531 228.25 611.460938 232.054688 611.460938 236.734375 L 611.460938 285.8125 C 605.578125 289.148438 601.601562 295.460938 601.601562 302.691406 L 601.601562 304.65625 C 601.601562 347.601562 617.117188 403.46875 660.636719 421.417969 L 660.636719 489.378906 C 660.636719 491.195312 662.113281 492.671875 663.929688 492.671875 L 776.121094 492.671875 C 777.9375 492.671875 779.414062 491.195312 779.414062 489.378906 L 779.414062 421.417969 C 822.933594 403.46875 838.445312 347.601562 838.445312 304.65625 L 838.445312 302.691406 C 838.445312 295.460938 834.46875 289.148438 828.589844 285.8125 Z M 618.042969 236.734375 C 618.042969 235.703125 618.914062 234.832031 619.945312 234.832031 L 820.105469 234.832031 C 821.136719 234.832031 822.011719 235.703125 822.011719 236.734375 L 822.011719 283.519531 C 821.046875 283.371094 820.058594 283.292969 819.054688 283.292969 C 808.433594 283.292969 799.785156 291.875 799.660156 302.460938 L 640.394531 302.460938 C 640.265625 291.867188 631.621094 283.292969 621 283.292969 C 619.996094 283.292969 619.007812 283.371094 618.042969 283.519531 Z M 690.171875 359.011719 C 690.171875 342.546875 703.5625 329.15625 720.027344 329.15625 C 736.492188 329.15625 749.882812 342.546875 749.882812 359.011719 C 749.882812 375.472656 736.492188 388.867188 720.027344 388.867188 C 703.5625 388.867188 690.171875 375.472656 690.171875 359.011719 Z M 756.464844 359.011719 C 756.464844 338.917969 740.117188 322.574219 720.027344 322.574219 C 699.9375 322.574219 683.589844 338.921875 683.589844 359.011719 C 683.589844 370.078125 688.554688 379.996094 696.359375 386.683594 L 683.269531 386.683594 C 660.054688 382.898438 641.726562 349.285156 640.476562 309.046875 L 799.585938 309.046875 C 798.332031 349.285156 780.003906 382.898438 756.789062 386.683594 L 743.699219 386.683594 C 751.503906 379.996094 756.46875 370.070312 756.46875 359.011719 Z M 831.867188 304.652344 C 831.867188 346.183594 816.96875 400.296875 774.96875 416.09375 C 773.683594 416.574219 772.835938 417.804688 772.835938 419.175781 L 772.835938 486.085938 L 667.226562 486.085938 L 667.226562 419.175781 C 667.226562 417.804688 666.375 416.574219 665.089844 416.09375 C 623.089844 400.292969 608.191406 346.183594 608.191406 304.652344 L 608.191406 302.6875 C 608.191406 295.621094 613.941406 289.871094 621.007812 289.871094 C 628.070312 289.871094 633.820312 295.621094 633.820312 302.6875 L 633.820312 304.652344 C 633.820312 326.65625 638.691406 347.769531 647.542969 364.109375 C 656.582031 380.808594 669.003906 391.140625 682.515625 393.222656 C 682.679688 393.25 682.847656 393.261719 683.011719 393.261719 L 707.605469 393.261719 C 711.484375 394.667969 715.671875 395.445312 720.03125 395.445312 C 724.394531 395.445312 728.578125 394.667969 732.457031 393.261719 L 757.050781 393.261719 C 757.222656 393.261719 757.386719 393.25 757.550781 393.222656 C 771.0625 391.140625 783.484375 380.808594 792.523438 364.109375 C 801.371094 347.769531 806.242188 326.648438 806.242188 304.652344 L 806.242188 302.6875 C 806.242188 295.621094 811.992188 289.871094 819.058594 289.871094 C 826.125 289.871094 831.875 295.621094 831.875 302.6875 L 831.875 304.652344 Z M 647.980469 286.300781 L 647.980469 250.992188 C 647.980469 249.175781 649.457031 247.703125 651.273438 247.703125 C 653.085938 247.703125 654.5625 249.175781 654.5625 250.992188 L 654.5625 265.355469 L 669.078125 265.355469 L 669.078125 250.992188 C 669.078125 249.175781 670.554688 247.703125 672.371094 247.703125 C 674.1875 247.703125 675.664062 249.175781 675.664062 250.992188 L 675.664062 286.300781 C 675.664062 288.117188 674.1875 289.59375 672.371094 289.59375 C 670.554688 289.59375 669.078125 288.117188 669.078125 286.300781 L 669.078125 271.9375 L 654.5625 271.9375 L 654.5625 286.300781 C 654.5625 288.117188 653.085938 289.59375 651.273438 289.59375 C 649.457031 289.59375 647.980469 288.117188 647.980469 286.300781 Z M 686.78125 286.300781 L 686.78125 250.992188 C 686.78125 249.175781 688.257812 247.703125 690.074219 247.703125 L 711.171875 247.703125 C 712.988281 247.703125 714.464844 249.175781 714.464844 250.992188 C 714.464844 252.808594 712.988281 254.285156 711.171875 254.285156 L 693.367188 254.285156 L 693.367188 265.355469 L 705.117188 265.355469 C 706.933594 265.355469 708.40625 266.832031 708.40625 268.648438 C 708.40625 270.464844 706.933594 271.9375 705.117188 271.9375 L 693.367188 271.9375 L 693.367188 283.007812 L 711.171875 283.007812 C 712.988281 283.007812 714.464844 284.484375 714.464844 286.300781 C 714.464844 288.117188 712.988281 289.59375 711.171875 289.59375 L 690.074219 289.59375 C 688.257812 289.59375 686.78125 288.117188 686.78125 286.300781 Z M 725.585938 286.300781 L 725.585938 250.992188 C 725.585938 249.175781 727.058594 247.703125 728.875 247.703125 C 730.691406 247.703125 732.167969 249.175781 732.167969 250.992188 L 732.167969 283.007812 L 749.976562 283.007812 C 751.789062 283.007812 753.265625 284.484375 753.265625 286.300781 C 753.265625 288.117188 751.789062 289.59375 749.976562 289.59375 L 728.875 289.59375 C 727.058594 289.59375 725.585938 288.117188 725.585938 286.300781 Z M 767.683594 289.59375 C 769.5 289.59375 770.976562 288.117188 770.976562 286.300781 L 770.976562 275.976562 L 777.9375 275.976562 C 785.730469 275.976562 792.074219 269.632812 792.074219 261.839844 C 792.074219 254.042969 785.730469 247.703125 777.9375 247.703125 L 767.683594 247.703125 C 765.867188 247.703125 764.390625 249.175781 764.390625 250.992188 L 764.390625 286.300781 C 764.390625 288.117188 765.867188 289.59375 767.683594 289.59375 Z M 785.492188 261.839844 C 785.492188 266.003906 782.101562 269.394531 777.9375 269.394531 L 770.976562 269.394531 L 770.976562 254.285156 L 777.9375 254.285156 C 782.101562 254.285156 785.492188 257.675781 785.492188 261.839844 Z M 785.492188 261.839844 " fill-opacity="1" fill-rule="nonzero"/></g></svg>