<svg xmlns="http://www.w3.org/2000/svg" xmlns:xlink="http://www.w3.org/1999/xlink" width="1920" zoomAndPan="magnify" viewBox="0 0 1440 809.999993" height="1080" preserveAspectRatio="xMidYMid meet" version="1.0"><defs><clipPath id="2be58e7cf0"><path d="M 762 410 L 914 410 L 914 585.410156 L 762 585.410156 Z M 762 410 " clip-rule="nonzero"/></clipPath><clipPath id="1e13a5ea6a"><path d="M 599 410 L 751 410 L 751 585.410156 L 599 585.410156 Z M 599 410 " clip-rule="nonzero"/></clipPath><clipPath id="93ef236df9"><path d="M 835 338 L 943.90625 338 L 943.90625 585.410156 L 835 585.410156 Z M 835 338 " clip-rule="nonzero"/></clipPath><clipPath id="0f761c62c2"><path d="M 569.65625 338 L 679 338 L 679 585.410156 L 569.65625 585.410156 Z M 569.65625 338 " clip-rule="nonzero"/></clipPath><clipPath id="497c442cdb"><path d="M 654 247.910156 L 860 247.910156 L 860 453 L 654 453 Z M 654 247.910156 " clip-rule="nonzero"/></clipPath></defs><rect x="-144" width="1728" fill="#ffffff" y="-80.999999" height="971.999992" fill-opacity="1"/><rect x="-144" width="1728" fill="#3396d3" y="-80.999999" height="971.999992" fill-opacity="1"/><g clip-path="url(#2be58e7cf0)"><path fill="#c8f0f3" d="M 774.847656 585.632812 C 771.527344 585.632812 768.820312 582.921875 768.820312 579.601562 C 768.820312 568.035156 767.476562 562.875 766.039062 557.433594 C 764.4375 551.332031 762.789062 545.042969 762.789062 531.355469 C 762.789062 491.375 823.140625 458.441406 831.550781 454.0625 C 840.269531 445.390625 876.289062 410.738281 895.464844 410.738281 C 902.601562 410.738281 906.773438 413.636719 909.011719 416.085938 C 914.027344 421.503906 913.605469 428.761719 913.535156 429.5625 C 913.4375 430.832031 912.945312 432.035156 912.121094 433 C 885.875 464.003906 871.175781 480.5625 868.445312 482.210938 C 862.8125 485.652344 832.800781 505.984375 832.519531 506.195312 C 829.761719 508.054688 825.992188 507.347656 824.132812 504.570312 C 822.269531 501.8125 822.976562 498.066406 825.734375 496.207031 C 826.984375 495.359375 856.3125 475.5 862.175781 471.917969 C 864.628906 469.84375 883.992188 447.511719 901.378906 427.015625 C 901.210938 426.074219 900.835938 424.992188 900.128906 424.214844 C 899.210938 423.273438 897.65625 422.800781 895.464844 422.800781 C 884.652344 422.800781 856.171875 446.453125 839.421875 463.25 C 838.972656 463.695312 838.453125 464.074219 837.890625 464.378906 C 837.253906 464.6875 774.847656 496.699219 774.847656 531.355469 C 774.847656 543.484375 776.238281 548.761719 777.699219 554.347656 C 779.253906 560.304688 780.878906 566.480469 780.878906 579.601562 C 780.878906 582.921875 778.171875 585.632812 774.847656 585.632812 " fill-opacity="1" fill-rule="nonzero"/></g><g clip-path="url(#1e13a5ea6a)"><path fill="#c8f0f3" d="M 738.664062 585.632812 C 735.34375 585.632812 732.632812 582.921875 732.632812 579.601562 C 732.632812 566.480469 734.257812 560.304688 735.8125 554.347656 C 737.273438 548.761719 738.664062 543.484375 738.664062 531.355469 C 738.664062 496.699219 676.261719 464.6875 675.625 464.378906 C 675.058594 464.074219 674.539062 463.695312 674.09375 463.25 C 657.34375 446.453125 628.863281 422.800781 618.050781 422.800781 C 615.835938 422.800781 614.234375 423.296875 613.363281 424.261719 C 612.632812 425.039062 612.300781 426.121094 612.136719 427.015625 C 629.523438 447.511719 648.886719 469.84375 651.738281 472.199219 C 657.203125 475.5 686.53125 495.359375 687.757812 496.207031 C 690.535156 498.066406 691.242188 501.8125 689.382812 504.570312 C 687.519531 507.347656 683.777344 508.078125 681.019531 506.195312 C 680.714844 505.984375 650.675781 485.652344 645.070312 482.210938 C 642.335938 480.5625 627.636719 464.003906 601.394531 433 C 600.570312 432.035156 600.074219 430.832031 599.980469 429.585938 C 599.910156 428.761719 599.484375 421.503906 604.480469 416.085938 C 606.742188 413.636719 610.910156 410.738281 618.050781 410.738281 C 637.203125 410.738281 673.246094 445.390625 681.960938 454.0625 C 690.371094 458.441406 750.726562 491.375 750.726562 531.355469 C 750.726562 545.042969 749.078125 551.332031 747.476562 557.433594 C 746.039062 562.875 744.695312 568.035156 744.695312 579.601562 C 744.695312 582.921875 741.988281 585.632812 738.664062 585.632812 " fill-opacity="1" fill-rule="nonzero"/></g><g clip-path="url(#93ef236df9)"><path fill="#c8f0f3" d="M 841.1875 585.632812 C 837.867188 585.632812 835.15625 582.921875 835.15625 579.601562 C 835.15625 544.757812 860.152344 529.585938 876.710938 519.550781 C 882.625 515.972656 888.230469 512.578125 890.800781 509.445312 C 896.925781 501.929688 922.671875 449.539062 925.878906 439.125 C 928.09375 431.988281 931.648438 374.4375 931.648438 352.082031 C 931.648438 351.421875 931.578125 351.019531 931.34375 350.597656 C 931.058594 350.527344 930.636719 350.429688 930.140625 350.429688 C 914.757812 350.429688 913.582031 387.558594 913.582031 398.9375 C 913.582031 402.257812 910.871094 404.96875 907.550781 404.96875 C 904.203125 404.96875 901.519531 402.257812 901.519531 398.9375 C 901.519531 348.875 917.089844 338.371094 930.140625 338.371094 C 931.859375 338.371094 937.75 338.722656 940.90625 343.175781 C 942.816406 345.882812 943.710938 348.710938 943.710938 352.082031 C 943.710938 370.667969 940.578125 432.410156 937.421875 442.660156 C 934.027344 453.613281 907.902344 507.5625 900.128906 517.078125 C 896.265625 521.8125 890.09375 525.558594 882.957031 529.894531 C 867.03125 539.527344 847.21875 551.542969 847.21875 579.601562 C 847.21875 582.921875 844.507812 585.632812 841.1875 585.632812 " fill-opacity="1" fill-rule="nonzero"/></g><g clip-path="url(#0f761c62c2)"><path fill="#c8f0f3" d="M 672.328125 585.632812 C 669.003906 585.632812 666.296875 582.921875 666.296875 579.601562 C 666.296875 551.542969 646.484375 539.527344 630.558594 529.894531 C 623.421875 525.558594 617.25 521.8125 613.386719 517.078125 C 605.609375 507.585938 579.484375 453.636719 576.09375 442.660156 C 572.9375 432.410156 569.804688 370.667969 569.804688 352.082031 C 569.804688 348.710938 570.699219 345.882812 572.605469 343.175781 C 575.761719 338.722656 581.628906 338.371094 583.371094 338.371094 C 596.421875 338.371094 611.996094 348.875 611.996094 398.9375 C 611.996094 402.257812 609.308594 404.96875 605.964844 404.96875 C 602.644531 404.96875 599.933594 402.257812 599.933594 398.9375 C 599.933594 387.558594 598.730469 350.429688 583.371094 350.429688 C 582.878906 350.429688 582.453125 350.527344 582.171875 350.597656 C 581.9375 351.019531 581.863281 351.421875 581.863281 352.082031 C 581.863281 374.4375 585.421875 431.988281 587.636719 439.125 C 590.839844 449.539062 616.589844 501.953125 622.714844 509.445312 C 625.28125 512.578125 630.886719 515.972656 636.800781 519.550781 C 653.363281 529.585938 678.355469 544.757812 678.355469 579.601562 C 678.355469 582.921875 675.648438 585.632812 672.328125 585.632812 " fill-opacity="1" fill-rule="nonzero"/></g><path fill="#c8f0f3" d="M 744.695312 398.675781 L 768.820312 398.675781 L 768.820312 368.523438 C 768.820312 365.203125 771.527344 362.492188 774.847656 362.492188 L 805.003906 362.492188 L 805.003906 338.371094 L 774.847656 338.371094 C 771.527344 338.371094 768.820312 335.660156 768.820312 332.339844 L 768.820312 302.183594 L 744.695312 302.183594 L 744.695312 332.339844 C 744.695312 335.660156 741.988281 338.371094 738.664062 338.371094 L 708.511719 338.371094 L 708.511719 362.492188 L 738.664062 362.492188 C 741.988281 362.492188 744.695312 365.203125 744.695312 368.523438 Z M 774.847656 410.738281 L 738.664062 410.738281 C 735.34375 410.738281 732.632812 408.03125 732.632812 404.707031 L 732.632812 374.554688 L 702.480469 374.554688 C 699.160156 374.554688 696.449219 371.84375 696.449219 368.523438 L 696.449219 332.339844 C 696.449219 329.015625 699.160156 326.308594 702.480469 326.308594 L 732.632812 326.308594 L 732.632812 296.15625 C 732.632812 292.832031 735.34375 290.125 738.664062 290.125 L 774.847656 290.125 C 778.171875 290.125 780.878906 292.832031 780.878906 296.15625 L 780.878906 326.308594 L 811.035156 326.308594 C 814.355469 326.308594 817.066406 329.015625 817.066406 332.339844 L 817.066406 368.523438 C 817.066406 371.84375 814.355469 374.554688 811.035156 374.554688 L 780.878906 374.554688 L 780.878906 404.707031 C 780.878906 408.03125 778.171875 410.738281 774.847656 410.738281 " fill-opacity="1" fill-rule="nonzero"/><g clip-path="url(#497c442cdb)"><path fill="#c8f0f3" d="M 756.757812 259.96875 C 706.863281 259.96875 666.296875 300.558594 666.296875 350.429688 C 666.296875 400.304688 706.863281 440.894531 756.757812 440.894531 C 806.652344 440.894531 847.21875 400.304688 847.21875 350.429688 C 847.21875 300.558594 806.652344 259.96875 756.757812 259.96875 Z M 756.757812 452.953125 C 700.21875 452.953125 654.234375 406.96875 654.234375 350.429688 C 654.234375 293.894531 700.21875 247.910156 756.757812 247.910156 C 813.296875 247.910156 859.28125 293.894531 859.28125 350.429688 C 859.28125 406.96875 813.296875 452.953125 756.757812 452.953125 " fill-opacity="1" fill-rule="nonzero"/></g></svg>